<svg xmlns="http://www.w3.org/2000/svg" xmlns:xlink="http://www.w3.org/1999/xlink" viewBox="0 0 239.16 64.27">
  <defs>
    <linearGradient id="a" x1="22.7" y1="779.19" x2="11.29" y2="736.6" gradientTransform="translate(0.72 -729.29)" gradientUnits="userSpaceOnUse">
      <stop offset="0.06" stop-color="#4f322b"/>
      <stop offset="0.16" stop-color="#ebdc9e"/>
      <stop offset="0.28" stop-color="#ebdc9e"/>
      <stop offset="0.42" stop-color="#634a2b"/>
      <stop offset="0.59" stop-color="#ab8f62"/>
      <stop offset="0.78" stop-color="#ebdc9e"/>
    </linearGradient>
    <linearGradient id="b" x1="52.51" y1="770.82" x2="46.69" y2="737.83" gradientTransform="translate(0.72 -729.29)" gradientUnits="userSpaceOnUse">
      <stop offset="0.07" stop-color="#4f322b"/>
      <stop offset="0.23" stop-color="#ebdc9e"/>
      <stop offset="0.33" stop-color="#ebdc9e"/>
      <stop offset="0.45" stop-color="#634a2b"/>
      <stop offset="0.64" stop-color="#ab8f62"/>
      <stop offset="0.85" stop-color="#ebdc9e"/>
    </linearGradient>
    <linearGradient id="c" x1="73.13" y1="759.06" x2="71.03" y2="734.97" gradientTransform="translate(0.72 -729.29)" gradientUnits="userSpaceOnUse">
      <stop offset="0.03" stop-color="#4f322b"/>
      <stop offset="0.13" stop-color="#ebdc9e"/>
      <stop offset="0.23" stop-color="#ebdc9e"/>
      <stop offset="0.34" stop-color="#634a2b"/>
      <stop offset="0.51" stop-color="#ab8f62"/>
      <stop offset="0.94" stop-color="#ebdc9e"/>
    </linearGradient>
    <linearGradient id="d" x1="96.8" y1="757.82" x2="96.8" y2="733.27" gradientTransform="translate(0.72 -729.29)" gradientUnits="userSpaceOnUse">
      <stop offset="0.04" stop-color="#4f322b"/>
      <stop offset="0.15" stop-color="#ebdc9e"/>
      <stop offset="0.26" stop-color="#ebdc9e"/>
      <stop offset="0.36" stop-color="#634a2b"/>
      <stop offset="0.48" stop-color="#ab8f62"/>
      <stop offset="0.85" stop-color="#ebdc9e"/>
    </linearGradient>
    <linearGradient id="e" x1="121.41" y1="757.62" x2="121.41" y2="733.27" gradientTransform="translate(0.72 -729.29)" gradientUnits="userSpaceOnUse">
      <stop offset="0.06" stop-color="#4f322b"/>
      <stop offset="0.19" stop-color="#ebdc9e"/>
      <stop offset="0.33" stop-color="#ebdc9e"/>
      <stop offset="0.46" stop-color="#634a2b"/>
      <stop offset="0.64" stop-color="#ab8f62"/>
      <stop offset="0.85" stop-color="#ebdc9e"/>
    </linearGradient>
    <linearGradient id="f" x1="146.13" y1="758.99" x2="148.23" y2="734.98" gradientTransform="translate(0.72 -729.29)" gradientUnits="userSpaceOnUse">
      <stop offset="0.06" stop-color="#4f322b"/>
      <stop offset="0.18" stop-color="#ebdc9e"/>
      <stop offset="0.32" stop-color="#ebdc9e"/>
      <stop offset="0.4" stop-color="#634a2b"/>
      <stop offset="0.52" stop-color="#ab8f62"/>
      <stop offset="0.83" stop-color="#ebdc9e"/>
    </linearGradient>
    <linearGradient id="g" x1="193.24" y1="769.68" x2="198.07" y2="742.26" gradientTransform="translate(0.72 -729.29)" gradientUnits="userSpaceOnUse">
      <stop offset="0.06" stop-color="#4f322b"/>
      <stop offset="0.23" stop-color="#ebdc9e"/>
      <stop offset="0.31" stop-color="#ebdc9e"/>
      <stop offset="0.4" stop-color="#634a2b"/>
      <stop offset="0.52" stop-color="#ab8f62"/>
      <stop offset="0.85" stop-color="#ebdc9e"/>
    </linearGradient>
    <linearGradient id="h" x1="220.49" y1="780.32" x2="228.38" y2="750.88" gradientTransform="translate(0.72 -729.29)" gradientUnits="userSpaceOnUse">
      <stop offset="0.06" stop-color="#4f322b"/>
      <stop offset="0.16" stop-color="#ebdc9e"/>
      <stop offset="0.25" stop-color="#ebdc9e"/>
      <stop offset="0.37" stop-color="#634a2b"/>
      <stop offset="0.49" stop-color="#ab8f62"/>
      <stop offset="0.85" stop-color="#ebdc9e"/>
    </linearGradient>
    <linearGradient id="i" x1="167.69" y1="770.1" x2="177.94" y2="731.86" gradientTransform="translate(0.72 -729.29)" gradientUnits="userSpaceOnUse">
      <stop offset="0.08" stop-color="#4f322b"/>
      <stop offset="0.28" stop-color="#ebdc9e"/>
      <stop offset="0.38" stop-color="#ebdc9e"/>
      <stop offset="0.46" stop-color="#634a2b"/>
      <stop offset="0.56" stop-color="#ab8f62"/>
      <stop offset="0.85" stop-color="#ebdc9e"/>
    </linearGradient>
  </defs>
  <title>argentsealogo-gold</title>
  <g>
    <path d="M159.11,37.59a330.82,330.82,0,0,0-92.73-.71l-.33,0L64.31,34l.75-.1a331.36,331.36,0,0,1,94.2.54l.43.06v3.2Z" transform="translate(1.51 1.56)" opacity="0.4"/>
    <path d="M43.66,40.7a3.69,3.69,0,0,1-1-.61,5,5,0,0,1-1-1.33l-.31-.59.65-.14c4.56-1,9.08-1.86,13.44-2.61l.35-.06,1.61,2.83-.71.12c-4.24.71-8.51,1.52-12.69,2.41l-.14,0Z" transform="translate(1.51 1.56)" opacity="0.4"/>
    <path d="M14.21,48.7a3.44,3.44,0,0,1-1.91-.64,3.52,3.52,0,0,1-.87-.94l-.34-.54.6-.21c5.26-1.79,10.68-3.44,16.12-4.92l1.06-.29-.48,1a8,8,0,0,1-1.27,1.91,6.41,6.41,0,0,1-1.27,1l-.06,0-.06,0c-3.83,1.12-7.65,2.31-11.34,3.54l-.09,0Z" transform="translate(1.51 1.56)" opacity="0.4"/>
    <path d="M234.86,60.72a237.32,237.32,0,0,0-52.38-18.67l-.95-.22.72-.65a10.72,10.72,0,0,0,1.5-1.66l.2-.27.32.08a236.76,236.76,0,0,1,51,18.37l.28.13v3.25Z" transform="translate(1.51 1.56)" opacity="0.4"/>
  </g>
  <g>
    <path d="M158.79,38.12a330.21,330.21,0,0,0-92.57-.72l-.71.1-2.39-4,1.62-.22a332.48,332.48,0,0,1,94.36.54l.92.14v4.37Z" transform="translate(1.51 1.56)" opacity="0.2"/>
    <path d="M43.21,41.19A4.57,4.57,0,0,1,42,40.5,5.86,5.86,0,0,1,40.85,39l-.67-1.26,1.4-.3c4.56-1,9.09-1.88,13.46-2.62l.75-.13L58,38.58l-1.53.26c-4.23.7-8.49,1.51-12.66,2.4l-.31.07Z" transform="translate(1.51 1.56)" opacity="0.2"/>
    <path d="M14,49.23a4,4,0,0,1-2.23-.75,4.08,4.08,0,0,1-1-1.1L10,46.22l1.3-.44C16.53,44,22,42.33,27.41,40.85l2.27-.62-1,2.13a8.75,8.75,0,0,1-1.36,2,7.56,7.56,0,0,1-1.4,1.12l-.12.08-.14,0c-3.81,1.11-7.62,2.3-11.32,3.54l-.19.06Z" transform="translate(1.51 1.56)" opacity="0.2"/>
    <path d="M234.37,61.19A237.68,237.68,0,0,0,182.1,42.56l-2-.46,1.54-1.39A9.6,9.6,0,0,0,183,39.14l.42-.58.7.16a237.86,237.86,0,0,1,51.16,18.41l.6.3V62Z" transform="translate(1.51 1.56)" opacity="0.2"/>
  </g>
  <path d="M159.47,38.65A329.91,329.91,0,0,0,67,37.94l-1,.12-2.78-4.68,2.15-.3a332.27,332.27,0,0,1,94.47.54l1.22.19V38.9Z" transform="translate(1.51 1.56)" opacity="0.1"/>
  <path d="M43.82,41.7A4.63,4.63,0,0,1,42.53,41a6.08,6.08,0,0,1-1.26-1.62l-.89-1.68,1.86-.4c4.57-1,9.11-1.87,13.48-2.62l1-.17L59.32,39l-2,.34c-4.25.71-8.5,1.51-12.65,2.4l-.41.09Z" transform="translate(1.51 1.56)" opacity="0.1"/>
  <path d="M14.68,49.77a4.26,4.26,0,0,1-3.54-2l-1-1.55,1.73-.59c5.27-1.79,10.71-3.45,16.17-4.93l3-.82-1.36,2.83a9.16,9.16,0,0,1-1.41,2.13A8,8,0,0,1,26.84,46l-.16.11-.19,0c-3.8,1.11-7.6,2.3-11.31,3.53l-.24.09Z" transform="translate(1.51 1.56)" opacity="0.1"/>
  <path d="M235,61.69a237.13,237.13,0,0,0-52.19-18.6l-2.7-.62,2.06-1.85a9.86,9.86,0,0,0,1.37-1.52l.56-.77.93.22A237.88,237.88,0,0,1,236.22,57l.81.39v5.34Z" transform="translate(1.51 1.56)" opacity="0.1"/>
  <path d="M221.05,44.86v5.33l16.6,8.09L237,51.55l-1.13-.5a5.21,5.21,0,0,1-.87-.53,3.34,3.34,0,0,1-.62-.56,7,7,0,0,1-1-1.61c-.22-.47-.66-1.62-1.08-2.74l-.75-2-10-26.12-4.14-1.53-5.88,19.77c-.49,1.54-.87,2.7-1.16,3.43a5.09,5.09,0,0,1-.55,1.06l.66-6.86L205.93,32l-.36,2.46a5.06,5.06,0,0,1-.37,1.26,3.4,3.4,0,0,1-.68,1,2,2,0,0,1-1.07.56h-.79a8,8,0,0,1-2.29-.33l-.13,0a7.55,7.55,0,0,1-2.74-1.12,3.81,3.81,0,0,1-1.28-1.59,5.21,5.21,0,0,1-.37-1.52,31.75,31.75,0,0,1-.18-3.65V27.53l.15.08a2.9,2.9,0,0,1,.82.69,4.42,4.42,0,0,1,.6,1.1,11.52,11.52,0,0,1,.43,2V33l4.7,1.19V19.52l-4.52-1.36-.21,2.65a8.27,8.27,0,0,1-.35,1.77,9,9,0,0,1-1.69-.22l-.09-7,1.69.41a17.52,17.52,0,0,1,2.79.88,6.36,6.36,0,0,1,2.78,2.72,8.17,8.17,0,0,1,.67,2.26l.21,1.51,4.7,1-.68-10.79-1.5-.39c-9.33-2.46-20.5-4.52-20.53-4.52l-1.09-.25-.1-6.21L180.14,1l-.26,1-.83-.53a23.78,23.78,0,0,0-3.18-1.85,12.61,12.61,0,0,0-2.66-.89,9.66,9.66,0,0,0-2.51-.33,9.8,9.8,0,0,0-6,2.11,10.55,10.55,0,0,0-3.09,4.07c0,.08-.06.16-.1.24l-1.27-.17c-7.36-.94-15.5-1.71-23.07-2.16V2.41L124.61,2V6.72h2a3.92,3.92,0,0,1,.94.22,1,1,0,0,1,.39.25,1.14,1.14,0,0,1,.24.39,11.48,11.48,0,0,1,.22,2.29l.16,6.19L117.1,1.72h-8.95V1.67L85,2.44v0l-.13,0h-.1v0l-4.2.9-.21.76L79.91,4a15.31,15.31,0,0,0-3.1-.65,15.78,15.78,0,0,0-1.67-.18H75a15.4,15.4,0,0,0-1.54.08,19.61,19.61,0,0,0-5.64,1.35A17.89,17.89,0,0,0,63.05,7.5a15.62,15.62,0,0,0-3.15,3.6A7.13,7.13,0,0,0,54.25,6a17.23,17.23,0,0,0-2.72-.21,15.82,15.82,0,0,0-2.6.21c-.46.06-1.27.19-2.49.39l-.65.11L34.69,8.48v4.78l2.49-.36a3.66,3.66,0,0,1,.57-.05c.2,0,.4,0,.5,0a.52.52,0,0,1,.28.15.25.25,0,0,1,.08.1,11.05,11.05,0,0,1,.22,2.4l.26,13.75A12.34,12.34,0,0,1,39,31.71a1.5,1.5,0,0,1-.26.63l-.18.21L25.66,1.25,21,2.64,8.45,37.51c-1.3,3.49-3,7.9-3.6,9.37a20,20,0,0,1-1.37,2.84,9.21,9.21,0,0,1-1.62,2.19A5.17,5.17,0,0,1,0,53.09l-1.5.38v5.46l17.88-6.52v-5.1l-2.71.75a2.76,2.76,0,0,1-.75.1,2.94,2.94,0,0,1-.84-.12.81.81,0,0,1-.28-.32,1.75,1.75,0,0,1-.2-.88A20.24,20.24,0,0,1,13,41.17l.84-2.27L15.18,35l10.63-3.13,2.53,6.22a6,6,0,0,1,.55,2.33A3.6,3.6,0,0,1,27.61,43a9.81,9.81,0,0,1-3.14,1.91l-1.4.53v5l2.75-.78,1.28-.34c3.3-.91,13.34-3.67,18.89-4.63l1.79-.3V39.23l-2.58.51a14.23,14.23,0,0,1-2.42.27,1.67,1.67,0,0,1-.62-.12,2.92,2.92,0,0,1-1-1c-.24-.46-.46-.93-.66-1.4L51.84,35V30.28l-2.53.43a4.75,4.75,0,0,1-.69.05H48.3a.33.33,0,0,1-.14-.1.49.49,0,0,1-.16-.24,8.82,8.82,0,0,1-.22-2.07l-.08-4.54h0a.58.58,0,0,1,.19,0,6,6,0,0,1,1.58,1.72c.83,1.2,6.16,10,6.9,11.46l1.47,2.85c.06.09.16.3.31.58l1,1.9L69,40.94V36.26l-2.32.19h-.18l-.22,0a.32.32,0,0,1-.09-.08,11.21,11.21,0,0,1-1.3-1.7c-.27-.41-1.52-2.45-2.93-4.76a11.27,11.27,0,0,0,3.48,1.61,18.56,18.56,0,0,0,4.64.59h.15a18.09,18.09,0,0,0,2-.11,23.44,23.44,0,0,0,5.16-1.07,18.9,18.9,0,0,0,4.51-2.27l0,0,.16,0,2.59.71a2.15,2.15,0,0,0,.14.26l0,.06.71.87h1.32c2.75-.36,10-.67,20.54-.88h.22v.05h12.42V25.15h-2.17a2.82,2.82,0,0,1-.81-.11,1.14,1.14,0,0,1-.35-.25,1,1,0,0,1-.22-.36,11.38,11.38,0,0,1-.22-2.28l-.21-8.86L130,30.35h4l-.51-20.64a9.73,9.73,0,0,1,.11-2.1.77.77,0,0,1,.09-.23,1.26,1.26,0,0,1,.6-.3l-.21,5.34,4.42,1,.36-2.29a4.18,4.18,0,0,1,.79-1.9,2.12,2.12,0,0,1,1-.83,11.6,11.6,0,0,1,2.28-.23h1.35v15.7A9.87,9.87,0,0,1,144.1,26a.49.49,0,0,1-.13.23.33.33,0,0,1-.1.06,3.66,3.66,0,0,1-.65.06h-.36l-2.31-.23v4.75l15.54,1.78V28l-1.85-.27a4,4,0,0,1-1-.27,1.25,1.25,0,0,1-.68-.85,11,11,0,0,1-.18-2.31V8.79a19,19,0,0,1,2.63.64,4.26,4.26,0,0,1,1.89,1.35,7.57,7.57,0,0,1,1.13,3l.27,1.83h3.33a13.94,13.94,0,0,0,1.48,2.57,18.16,18.16,0,0,0,2.43,2.68,48.48,48.48,0,0,0,4,3.28,48.75,48.75,0,0,1,4.08,3.35,10.23,10.23,0,0,1,1.74,2.11,8.94,8.94,0,0,1,1,2.34,10.12,10.12,0,0,1,.36,2.63,4.34,4.34,0,0,1-1.27,3.37,3.26,3.26,0,0,1-2.13.79,3.58,3.58,0,0,1-1-.15c-2.25-.48-4.25-2.27-5.75-5.16a30.13,30.13,0,0,1-2.44-7.14l-.26-1.34-4.57-1.17-.13,16.09,2.16.72,2.78.68V40.15l1,.68a20.65,20.65,0,0,0,7.26,3.22,12.72,12.72,0,0,0,3.13.39,12.46,12.46,0,0,0,4.78-.95,10.12,10.12,0,0,0,5.1-5.11c2.48.6,16.67,4.37,21.14,6.36l.08,0,.59.19.32.11,11.29,4.07v-5l-1.27-.58a3.32,3.32,0,0,1-1.17-.86,3.49,3.49,0,0,1-.56-.88,2.77,2.77,0,0,1-.22-.76,7.16,7.16,0,0,1,.47-2.58l.4-1.21.1-.34,5,1.86,2.2,5.79a7.78,7.78,0,0,1,.44,1.42L224,46ZM17.53,28.48l3.26-9.18,2.94,7.36ZM49.84,17.57a3.36,3.36,0,0,1-1.08.83c-.41.14-.82.27-1.23.38l-.14-7.51a12.76,12.76,0,0,1,1.51-.1h.18a1.94,1.94,0,0,1,.86.22,2.38,2.38,0,0,1,.88,1,3.62,3.62,0,0,1,.39,1.71A4.8,4.8,0,0,1,49.84,17.57Zm6.54,3h0a9.9,9.9,0,0,0,.85-.7,13.2,13.2,0,0,0,.15,2.35C57.06,21.63,56.74,21.09,56.38,20.54Zm15.83-2.15v5l2.6-.54a3.08,3.08,0,0,1,.61-.06,3.15,3.15,0,0,1,1.1.2.27.27,0,0,1,0,.21v.19a3.18,3.18,0,0,1-.78,2,4.47,4.47,0,0,1-1.48,1.16,5.27,5.27,0,0,1-2,.58l-.15,0a5,5,0,0,1-.51.07A4.6,4.6,0,0,1,68,25.41a7.39,7.39,0,0,1-1.43-2.64,11.46,11.46,0,0,1-.43-3.64A13.54,13.54,0,0,1,69,11.33,8.62,8.62,0,0,1,71.37,9,7.31,7.31,0,0,1,74.47,8h.76a4.2,4.2,0,0,1,2.5.84,8.91,8.91,0,0,1,2.53,4.19l.48,1.9,4.19-.67L85,7.08h2a4.06,4.06,0,0,1,1,.13.65.65,0,0,1,.21.16.52.52,0,0,1,.14.22,9.67,9.67,0,0,1,.13,2.23l-.11,7Zm15.91,6.36a1,1,0,0,1-.63.71l-.08,0-.08,0a3.55,3.55,0,0,1-1.06.33l-1.41.24,0,.09v-2a6.27,6.27,0,0,1,.26-2,7.6,7.6,0,0,1,1.67-.43l1.51-.31,0,1.22A10.25,10.25,0,0,1,88.12,24.75Zm23-.39a.65.65,0,0,1-.47.49,3.34,3.34,0,0,1-.52.14l.33-6.58h-4.45l-.35,1.76a12.62,12.62,0,0,1-.63,2.11,5,5,0,0,1-.8,1.24,3.54,3.54,0,0,1-1.44,1.06,8.59,8.59,0,0,1-2.92.51h-.56a5.14,5.14,0,0,1-1.78-.32,1.31,1.31,0,0,1-.61-.64,3.36,3.36,0,0,1-.27-1.08c-.07-1-.1-2.13-.07-3.28l0-1.82a4.34,4.34,0,0,1,.52.09.71.71,0,0,1,.33.18,1.68,1.68,0,0,1,.35.53,7.52,7.52,0,0,1,.33,1.62v2h4.63l.31-13.66H98.6l-.21,1.92a7.81,7.81,0,0,1-.33,1.54,1.15,1.15,0,0,1-.27.42.66.66,0,0,1-.29.18,7.73,7.73,0,0,1-.81.16l.09-6.11,1.87-.08h.65a12,12,0,0,1,2,.17,2.74,2.74,0,0,1,1.94,1.29,5,5,0,0,1,.5,1.64l.21,1.91h4.59l-.19-5.28h.79a3.89,3.89,0,0,1,1,.18,1,1,0,0,1,.35.26,1,1,0,0,1,.26.49,7.6,7.6,0,0,1,.22,1.87l.33,13A10.35,10.35,0,0,1,111.17,24.36Zm76,9.07a.15.15,0,0,1-.09.12h-.42a11.83,11.83,0,0,0,0-1.19,15.79,15.79,0,0,0-2.52-8.57,24.8,24.8,0,0,0-6.71-6.72l-3.73-2.74c-3.18-2.31-4.79-4.72-4.79-7.15a4.8,4.8,0,0,1,.28-1.57,3,3,0,0,1,.66-1.05,2.53,2.53,0,0,1,1.78-.73,2.85,2.85,0,0,1,.81.13l.06,0h.07a5.56,5.56,0,0,1,2.54,1.27,11.51,11.51,0,0,1,2.41,3.34,18.06,18.06,0,0,1,1.09,2.6c.32.92.7,2.37,1.18,4.23l.31,1.32,4.59,1-.07-4.81h0a5.45,5.45,0,0,1,1.22.49,2.46,2.46,0,0,1,1.06,1.42,13.46,13.46,0,0,1,.2,2.64l.16,13.61A10,10,0,0,1,187.14,33.43ZM218,32.08l.46-1.55.76,2Z" transform="translate(1.51 1.56)" opacity="0.1" style="isolation: isolate"/>
  <path d="M221.4,45.3v4.59l15.82,7.71-.57-5.89-.94-.42a4.83,4.83,0,0,1-.92-.56,3.73,3.73,0,0,1-.69-.62A7.43,7.43,0,0,1,233,48.42c-.23-.48-.65-1.61-1.1-2.81l-.74-2-9.95-26-3.63-1.34-5.77,19.41c-.51,1.6-.88,2.73-1.17,3.45a5.71,5.71,0,0,1-.78,1.4,1.18,1.18,0,0,1-.38.32h-.17l.72-7.4-3.86-1.13-.3,2a5,5,0,0,1-.4,1.36,3.64,3.64,0,0,1-.74,1.05,2.27,2.27,0,0,1-1.31.67h-.82a8.83,8.83,0,0,1-2.48-.37A7.92,7.92,0,0,1,197.27,36a4.13,4.13,0,0,1-1.39-1.74,5.34,5.34,0,0,1-.4-1.63,32,32,0,0,1-.18-3.68v-2a7.08,7.08,0,0,1,.68.32,3,3,0,0,1,.93.79,4.48,4.48,0,0,1,.66,1.21,11.55,11.55,0,0,1,.45,2.1v1.27l4,1V19.71l-3.84-1.16L198,20.76a9,9,0,0,1-.32,1.76.54.54,0,0,1-.19.27.33.33,0,0,1-.21.07,9.06,9.06,0,0,1-2-.3l-.09-7.76,2.12.52a17.29,17.29,0,0,1,2.88.91,6.63,6.63,0,0,1,2.94,2.89,8.13,8.13,0,0,1,.7,2.36l.18,1.26,4,.81-.63-10-1.25-.33c-9.13-2.4-20.1-4.44-20.52-4.52l-1.37-.32-.09-6.19-3.7-.79-.3,1.17-1.26-.8A23.66,23.66,0,0,0,175.7-.1,12.3,12.3,0,0,0,173.11-1,9.37,9.37,0,0,0,164.86.75a10.39,10.39,0,0,0-3,3.93c-.07.16-.12.33-.18.49L160.13,5c-7.48-1-15.75-1.73-23.39-2.19v-.1L125,2.28v4h1.66a4.38,4.38,0,0,1,1.11.24,1.75,1.75,0,0,1,.51.34,1.53,1.53,0,0,1,.33.57,11.35,11.35,0,0,1,.23,2.35L129,17,116.92,2h-9.13V2l-22.64.76V6.64H87a4.46,4.46,0,0,1,1.12.15.76.76,0,0,1,.36.25.84.84,0,0,1,.25.42,10.82,10.82,0,0,1,.13,2.29l-.2,12.8a10.52,10.52,0,0,1-.15,2.2,1.38,1.38,0,0,1-.86,1l-.06,0-.06,0a4,4,0,0,1-1.16.36l-1.17.2-.26,1.09a2.13,2.13,0,0,0,.23,1.91l0,.05.6.72h1.1c2.74-.35,10-.67,20.52-.87l.53,0H108v.06h11.7V25.43h-1.8a3.9,3.9,0,0,1-.91-.11,1.62,1.62,0,0,1-.52-.36,1.15,1.15,0,0,1-.31-.54,12.06,12.06,0,0,1-.23-2.34l-.24-9.92,14.42,17.75h3.49l-.5-20.26a10.58,10.58,0,0,1,.11-2.19.92.92,0,0,1,.2-.42,1.62,1.62,0,0,1,1.08-.45h.14l-.21,5.47,3.75.81.3-1.91a4.49,4.49,0,0,1,.84-2,2.51,2.51,0,0,1,1.17-1,11.89,11.89,0,0,1,2.39-.24H144a3.81,3.81,0,0,1,.59,0v16a10.52,10.52,0,0,1-.16,2.25.73.73,0,0,1-.23.42.76.76,0,0,1-.21.15,3.53,3.53,0,0,1-.79.08h-.39l-1.92-.19v4l14.82,1.7v-4L154.18,28a4.06,4.06,0,0,1-1.09-.3,1.59,1.59,0,0,1-.88-1.11,11.5,11.5,0,0,1-.18-2.37V8.29a20.08,20.08,0,0,1,3.11.72,4.68,4.68,0,0,1,2,1.44,8,8,0,0,1,1.21,3.16l.23,1.53h3.25a13.44,13.44,0,0,0,1.54,2.71,17.46,17.46,0,0,0,2.38,2.63,49.89,49.89,0,0,0,4,3.26,49.78,49.78,0,0,1,4.11,3.37,10.5,10.5,0,0,1,1.81,2.2,9.2,9.2,0,0,1,1,2.42,10.35,10.35,0,0,1,.37,2.7,4.66,4.66,0,0,1-1.39,3.67,3.61,3.61,0,0,1-2.36.88,4.25,4.25,0,0,1-1.08-.15c-2.37-.51-4.45-2.37-6-5.36a30.41,30.41,0,0,1-2.46-7.23l-.22-1.11-3.91-1-.11,15.36,1.93.64,2.28.56V39.4l1.56,1.06a20.29,20.29,0,0,0,7.15,3.16,12.41,12.41,0,0,0,3,.38,12.24,12.24,0,0,0,4.63-.91,9.87,9.87,0,0,0,5-5.18v0h.06c1.34.33,16.74,4.35,21.43,6.44l.06,0,.58.18.33.11,10.81,3.9V44.32l-1.06-.48a3.8,3.8,0,0,1-1.29-1,3.35,3.35,0,0,1-.61-1,3,3,0,0,1-.26-.85,7.22,7.22,0,0,1,.49-2.76l.39-1.2.21-.71,5.57,2.05,2.24,5.93a8.17,8.17,0,0,1,.56,2,2.24,2.24,0,0,1-.81-.15ZM111.51,24.35a1,1,0,0,1-.69.75,3.34,3.34,0,0,1-1,.22h0l.32-6.63h-3.77l-.29,1.47a12.66,12.66,0,0,1-.66,2.19,5.17,5.17,0,0,1-.84,1.32,4.15,4.15,0,0,1-1.6,1.17,9,9,0,0,1-3,.53h-.57A5.47,5.47,0,0,1,97.45,25a1.68,1.68,0,0,1-.82-.84,3.65,3.65,0,0,1-.3-1.2,32.6,32.6,0,0,1-.07-3.31l0-2.22a6,6,0,0,1,1,.14,1.12,1.12,0,0,1,.5.28,1.93,1.93,0,0,1,.42.67,7.89,7.89,0,0,1,.36,1.66V22h3.92L102.75,9H98.91l-.17,1.6a7.68,7.68,0,0,1-.35,1.61,1.59,1.59,0,0,1-.35.56,1,1,0,0,1-.47.28,9.2,9.2,0,0,1-1.26.21l.1-6.85,2.23-.1h.65a12.54,12.54,0,0,1,2,.17A3.14,3.14,0,0,1,103.53,8a5.58,5.58,0,0,1,.54,1.77l.17,1.59h3.89l-.19-5.28h1.2a4.49,4.49,0,0,1,1.09.21,1.41,1.41,0,0,1,.82,1,7.77,7.77,0,0,1,.24,2l.32,13A9.91,9.91,0,0,1,111.51,24.35Zm76,9.07a.54.54,0,0,1-.18.32.34.34,0,0,1-.18.09h-.34a3.52,3.52,0,0,1-.56,0,12.73,12.73,0,0,0,.08-1.51,15.49,15.49,0,0,0-2.46-8.37,24.32,24.32,0,0,0-6.63-6.63l-3.72-2.74c-3.28-2.39-4.94-4.89-4.94-7.44a5.07,5.07,0,0,1,.3-1.7,3.48,3.48,0,0,1,.74-1.18,2.93,2.93,0,0,1,2-.83,3.67,3.67,0,0,1,1,.17,5.81,5.81,0,0,1,2.71,1.36,11.84,11.84,0,0,1,2.49,3.44A18,18,0,0,1,179,11c.32,1,.71,2.41,1.19,4.27l.25,1.09,3.93.86-.07-4.84.47.13A7.46,7.46,0,0,1,186,13a2.81,2.81,0,0,1,1.22,1.67,13.31,13.31,0,0,1,.21,2.7L187.62,31A10.83,10.83,0,0,1,187.48,33.42Zm30-1.2.86-2.9,1.42,3.73Z" transform="translate(1.51 1.56)" opacity="0.2" style="isolation: isolate"/>
  <path d="M72.56,18.63v4.21l2.16-.45a4,4,0,0,1,.69-.07,3.5,3.5,0,0,1,1.32.27.65.65,0,0,1,.18.56l0,.07v.07A3.57,3.57,0,0,1,76,25.47a4.92,4.92,0,0,1-1.6,1.25,5.54,5.54,0,0,1-2.1.62h-.11a5.62,5.62,0,0,1-.58.08,5,5,0,0,1-3.88-1.86,7.63,7.63,0,0,1-1.51-2.78A11.61,11.61,0,0,1,65.81,19a13.86,13.86,0,0,1,2.88-8,9,9,0,0,1,2.48-2.48,7.78,7.78,0,0,1,3.26-1h.78a4.53,4.53,0,0,1,2.7.89,9.19,9.19,0,0,1,2.68,4.41L81,14.47l3.56-.56.09-11.13-3.77.81-.26.91-.83-.25a14,14,0,0,0-3.05-.64,12.87,12.87,0,0,0-1.63-.17H75c-.5,0-1,0-1.51.08A19.2,19.2,0,0,0,68,4.84,17.46,17.46,0,0,0,63.27,7.7,15.31,15.31,0,0,0,59.73,12a6.77,6.77,0,0,0-5.55-5.66,16.65,16.65,0,0,0-5.21,0l-2.6.42-.54.09L35,8.71v4l2.07-.3a4.46,4.46,0,0,1,.63-.05c.21,0,.42,0,.57,0a1,1,0,0,1,.43.23A.59.59,0,0,1,39,13a11.1,11.1,0,0,1,.23,2.46l.26,13.74a12.26,12.26,0,0,1-.14,2.5,1.83,1.83,0,0,1-.33.81,5.64,5.64,0,0,1-.59.61L25.44,1.61,21.26,2.85,8.78,37.56c-1.3,3.49-3,7.9-3.61,9.37a21.07,21.07,0,0,1-1.38,2.88A9.45,9.45,0,0,1,2.1,52.08a5.48,5.48,0,0,1-2,1.28l-1.25.31v4.67L16,52.08V47.7l-2.26.63a3,3,0,0,1-.84.11,3.3,3.3,0,0,1-1-.15,1,1,0,0,1-.45-.49,2.15,2.15,0,0,1-.24-1.08A20.38,20.38,0,0,1,12.65,41l.84-2.26,1.4-4.06L26,31.38l2.65,6.5a6.46,6.46,0,0,1,.58,2.5,3.93,3.93,0,0,1-1.4,2.82,10,10,0,0,1-3.26,2l-1.16.45v4.31l2.3-.65c.19,0,.54-.14,1.27-.34,3.66-1,13.36-3.67,18.93-4.63l1.49-.25V39.59L45.26,40a14.17,14.17,0,0,1-2.49.28,1.87,1.87,0,0,1-.74-.14,3.22,3.22,0,0,1-1.2-1.23c-.3-.59-.58-1.2-.83-1.82l11.47-2.45v-4L49.36,31a4.22,4.22,0,0,1-.75.06h-.4a.93.93,0,0,1-.31-.19.8.8,0,0,1-.26-.43,8.92,8.92,0,0,1-.23-2.15l-.09-4.89h.41a1.14,1.14,0,0,1,.32.07,5.85,5.85,0,0,1,1.72,1.84c.84,1.2,6.19,10,6.93,11.5l1.45,2.82c.06.1.18.32.34.63l.87,1.65,9.29-1.33v-4l-1.9.16h-.23a1.17,1.17,0,0,1-.32,0,.68.68,0,0,1-.27-.18,11.68,11.68,0,0,1-1.33-1.75c-.34-.52-2.24-3.61-4-6.58a10.81,10.81,0,0,0,5,2.88,17.85,17.85,0,0,0,4.55.58h.15a18,18,0,0,0,2-.11,23.2,23.2,0,0,0,5.07-1.05,18.26,18.26,0,0,0,4.41-2.22.82.82,0,0,1,.2-.12,1.16,1.16,0,0,1,.31.07l2.28.62V24.11a6.56,6.56,0,0,1,.28-2.17.34.34,0,0,1,.13-.16,8,8,0,0,1,1.91-.5L88.27,21V17.09ZM16.94,29,20.75,18.2l3.45,8.61ZM50.1,17.73a3.85,3.85,0,0,1-1.22.93,16.7,16.7,0,0,1-1.71.49L47,10.87a14.73,14.73,0,0,1,1.88-.14h.19a2.43,2.43,0,0,1,1,.28,2.76,2.76,0,0,1,1,1.13A4.08,4.08,0,0,1,51.56,14,5.14,5.14,0,0,1,50.1,17.73Zm7.23,5.07a21.23,21.23,0,0,0-1.26-2.13,3.15,3.15,0,0,0-.22-.29A9,9,0,0,0,57,19.44c.21-.19.42-.39.61-.6,0,.21,0,.42-.06.64a14.23,14.23,0,0,0,.62,4.67c0,.08.06.15.08.23Z" transform="translate(1.51 1.56)" opacity="0.2" style="isolation: isolate"/>
  <path d="M73,19.09v3.29L74.66,22a3.94,3.94,0,0,1,.77-.08,3.88,3.88,0,0,1,1.57.33,1.14,1.14,0,0,1,.34,1.09,3.94,3.94,0,0,1-1,2.43,5.28,5.28,0,0,1-1.73,1.37,6.36,6.36,0,0,1-2.33.67,5.89,5.89,0,0,1-.66.08,5.38,5.38,0,0,1-4.21-2A8.11,8.11,0,0,1,65.85,23a12.1,12.1,0,0,1-.45-3.88,14.29,14.29,0,0,1,2.95-8.21A9.5,9.5,0,0,1,71,8.26a8.19,8.19,0,0,1,3.44-1h.82a5,5,0,0,1,3,1A9.53,9.53,0,0,1,81,12.85l.31,1.21,2.82-.45.08-10.22-3,.64-.19.67a1.7,1.7,0,0,1-.17.34h-.18l-1-.32a15,15,0,0,0-3-.62A15.41,15.41,0,0,0,75,3.93,14.52,14.52,0,0,0,73.54,4a19.09,19.09,0,0,0-5.4,1.29,17.39,17.39,0,0,0-4.58,2.8,15.18,15.18,0,0,0-3.94,5.09c-.09.2-.17.4-.25.6,0-.2,0-.39,0-.58a6.32,6.32,0,0,0-5.26-6.4,16.65,16.65,0,0,0-2.61-.2,15.53,15.53,0,0,0-2.47.2c-.46.06-1.26.19-2.47.39l-.65.11L35.49,9.14v3.19l1.58-.23a5.34,5.34,0,0,1,.69,0,6.3,6.3,0,0,1,.65,0,1.26,1.26,0,0,1,.62.31,1,1,0,0,1,.37.56,11.33,11.33,0,0,1,.23,2.54l.26,13.73a13.2,13.2,0,0,1-.14,2.59,2.24,2.24,0,0,1-.43,1,5.43,5.43,0,0,1-.83.83,2.22,2.22,0,0,1-.27.19l-.2-.46L25.21,2.2l-3.6,1.07L9.2,37.78c-1.29,3.49-3,7.9-3.6,9.38a21.28,21.28,0,0,1-1.41,2.93,10.21,10.21,0,0,1-1.76,2.37A6,6,0,0,1,.26,53.83l-1,.25v3.71l16.3-5.94V48.34l-1.72.48a3.83,3.83,0,0,1-1,.12,3.45,3.45,0,0,1-1.11-.17,1.4,1.4,0,0,1-.7-.7,2.52,2.52,0,0,1-.29-1.32,20.91,20.91,0,0,1,1.46-5.86l.83-2.26,1.48-4.26,11.7-3.45,2.79,6.85a6.81,6.81,0,0,1,.62,2.7,4.34,4.34,0,0,1-1.54,3.12,10.74,10.74,0,0,1-3.39,2.07l-.89.34v3.44L25.62,49l1.28-.35c3.66-1,13.38-3.67,19-4.64L47,43.77V40.18l-1.64.33a14.75,14.75,0,0,1-2.57.28,2.22,2.22,0,0,1-1-.2,3.65,3.65,0,0,1-1.36-1.4,22.21,22.21,0,0,1-1-2.34l11.63-2.48V31.21l-1.6.26a4.28,4.28,0,0,1-.83.07h-.47a1.34,1.34,0,0,1-.52-.29,1.29,1.29,0,0,1-.4-.67A9.18,9.18,0,0,1,47,28.35l-.1-5.3a3.39,3.39,0,0,1,.55,0h.32a1.72,1.72,0,0,1,.51.11,6.56,6.56,0,0,1,1.87,2c.84,1.21,6.21,10,7,11.55l1.44,2.79c.06.11.17.33.34.64l.73,1.4,8.62-1.24V37.11l-1.47.12h-.23a1.63,1.63,0,0,1-.47-.06,1.13,1.13,0,0,1-.43-.29,11.23,11.23,0,0,1-1.38-1.81c-.69-1-6.2-10.09-7.29-12-.37-.7-.78-1.4-1.23-2.08a4.53,4.53,0,0,0-.54-.62,9,9,0,0,0,1.54-1.17,8.2,8.2,0,0,0,1.53-1.86A16.36,16.36,0,0,0,58,19.56a13.88,13.88,0,0,0,.6,4.53,10,10,0,0,0,2.15,3.75,10.45,10.45,0,0,0,4.91,2.88,17.4,17.4,0,0,0,4.45.57h.14a17.37,17.37,0,0,0,1.92-.11,22.2,22.2,0,0,0,5-1A17.42,17.42,0,0,0,81.44,28a1.53,1.53,0,0,1,.4-.21,2.11,2.11,0,0,1,.49.09l1.73.47V24.2a6.78,6.78,0,0,1,.32-2.36.84.84,0,0,1,.27-.36,8.19,8.19,0,0,1,2.07-.55l1.14-.24V17.64ZM16.28,29.67,20.75,17,24.8,27.16ZM50.45,18.08a4.34,4.34,0,0,1-1.35,1,14.62,14.62,0,0,1-2.33.64l-.18-9.18a14,14,0,0,1,2.32-.2h.21a2.87,2.87,0,0,1,1.25.34A3.15,3.15,0,0,1,51.54,12,4.5,4.5,0,0,1,52,14.07,5.55,5.55,0,0,1,50.45,18.08Z" transform="translate(1.51 1.56)" opacity="0.3" style="isolation: isolate"/>
  <path d="M225,47h-.29a2.8,2.8,0,0,1-1-.18l-1.88-.69v3.69L236.77,57l-.47-4.87-.71-.32a5.28,5.28,0,0,1-1-.59,3.77,3.77,0,0,1-.78-.71,7.34,7.34,0,0,1-1.11-1.77c-.24-.5-.66-1.62-1.11-2.81l-.75-2L221,18.15,218,17l-5.64,19c-.51,1.61-.89,2.75-1.18,3.48A5.64,5.64,0,0,1,210.3,41a1.46,1.46,0,0,1-.54.48,1.67,1.67,0,0,1-.39,0,1.49,1.49,0,0,1-.43-.06l.72-7.46-3-.89-.23,1.56a5.15,5.15,0,0,1-.44,1.48,4.06,4.06,0,0,1-.82,1.17,2.75,2.75,0,0,1-1.54.8h-.89a8.89,8.89,0,0,1-2.57-.38,8.17,8.17,0,0,1-3.06-1.26,4.59,4.59,0,0,1-1.54-1.92,6.07,6.07,0,0,1-.43-1.75,33,33,0,0,1-.18-3.72V26.44a7,7,0,0,1,1.33.55,3.53,3.53,0,0,1,1.06.9,5,5,0,0,1,.72,1.34,11.92,11.92,0,0,1,.47,2.17v1l3.12.79v-13l-3-.91L198.47,21a10.24,10.24,0,0,1-.34,1.85.94.94,0,0,1-.34.47.79.79,0,0,1-.49.17,10,10,0,0,1-2.34-.37l-.11,0-.1-8.65,2.66.65a19.18,19.18,0,0,1,3,1,7.16,7.16,0,0,1,3.14,3.09,9,9,0,0,1,.73,2.49l.14.95,3.13.64L207,14l-1-.25c-9.3-2.45-20.44-4.5-20.51-4.51l-1.61-.38V12l1,.28a6.72,6.72,0,0,1,1.42.59,3.25,3.25,0,0,1,1.42,1.94,15.12,15.12,0,0,1,.22,2.78l.16,13.57a11.87,11.87,0,0,1-.15,2.53,1.07,1.07,0,0,1-.33.57.79.79,0,0,1-.38.19h-.42a4.49,4.49,0,0,1-1-.11l-.07,0a14.25,14.25,0,0,0,.12-1.85,15,15,0,0,0-2.39-8.13A23.94,23.94,0,0,0,177,17.78L173.28,15c-3.39-2.47-5.11-5.1-5.11-7.8a5.31,5.31,0,0,1,.33-1.85,3.91,3.91,0,0,1,.84-1.33,3.31,3.31,0,0,1,2.35-.95,3.62,3.62,0,0,1,1.09.17,6.35,6.35,0,0,1,2.92,1.48,12.26,12.26,0,0,1,2.58,3.55,19.46,19.46,0,0,1,1.13,2.7c.33,1,.72,2.43,1.2,4.31l.2.83,3.12.68-.22-14.2-3-.62s-.33,1.3-.34,1.32l-.08-.05c-.31-.17-.88-.52-1.7-1A22.79,22.79,0,0,0,175.57.44a12.23,12.23,0,0,0-2.52-.84,9,9,0,0,0-7.86,1.63A9.87,9.87,0,0,0,162.32,5a10.8,10.8,0,0,0-.63,1.84l-.05-1.11-1.51-.2c-7.52-1-15.85-1.74-23.5-2.19h-.28V3.24l-10.9-.37V6h1.26a4.58,4.58,0,0,1,1.23.27,2.11,2.11,0,0,1,.67.44,1.91,1.91,0,0,1,.44.78,11.51,11.51,0,0,1,.23,2.43l.22,8.54L116.76,2.58h-8.84v3.2h1.29a4.79,4.79,0,0,1,1.23.23,1.87,1.87,0,0,1,.64.45,1.71,1.71,0,0,1,.44.84,8.17,8.17,0,0,1,.26,2.05l.32,12.93a11,11,0,0,1-.11,2.3,1.41,1.41,0,0,1-1,1.07,3.9,3.9,0,0,1-1.19.25h-.45l.32-6.63h-3l-.22,1.13a13.26,13.26,0,0,1-.69,2.27,5.81,5.81,0,0,1-.91,1.42,4.43,4.43,0,0,1-1.79,1.3A9.3,9.3,0,0,1,100,26H99.4a5.73,5.73,0,0,1-2.08-.38,2.13,2.13,0,0,1-1-1.05A4.18,4.18,0,0,1,96,23.17a33.2,33.2,0,0,1-.07-3.34l0-2.65H96a6,6,0,0,1,1.41.16,1.61,1.61,0,0,1,.7.39,2.34,2.34,0,0,1,.53.84,9.34,9.34,0,0,1,.38,1.8v1.31h3.06l.27-12.08h-3l-.13,1.22a8.88,8.88,0,0,1-.37,1.7,1.79,1.79,0,0,1-.45.71,1.5,1.5,0,0,1-.68.41,9.76,9.76,0,0,1-1.8.25L96,6.16l2.65-.11h.65a13.52,13.52,0,0,1,2.1.17A3.57,3.57,0,0,1,104,7.93a5.93,5.93,0,0,1,.58,1.92l.13,1.21h3.06l-.31-8.51-21.8.73V6.36H87a4.58,4.58,0,0,1,1.24.17,1.23,1.23,0,0,1,.54.35,1.21,1.21,0,0,1,.36.65A11,11,0,0,1,89.3,9.9l-.2,12.78A11.8,11.8,0,0,1,88.93,25a1.84,1.84,0,0,1-1.2,1.3,4.4,4.4,0,0,1-1.29.4l-.89.15-.1.42-.08.37a1.76,1.76,0,0,0,.2,1.65l.44.53h.84c2.77-.36,10.1-.68,20.62-.88h1V29h10.83V26H118a3.86,3.86,0,0,1-1-.14,1.91,1.91,0,0,1-.67-.46,1.58,1.58,0,0,1-.43-.76,12.11,12.11,0,0,1-.24-2.42l-.27-11.18,15.08,18.58h2.85l-.49-19.81a10.89,10.89,0,0,1,.12-2.29,1.37,1.37,0,0,1,.32-.65,2,2,0,0,1,1.38-.57h.23l.36,0-.22,5.52,3,.64.22-1.45A5,5,0,0,1,139,8.83a3,3,0,0,1,1.41-1.17,12.35,12.35,0,0,1,2.51-.25h1.12a6.46,6.46,0,0,1,.84.07l.12,0h.06V23.87a11.52,11.52,0,0,1-.17,2.35,1.22,1.22,0,0,1-.35.65,1.12,1.12,0,0,1-.43.26,4.38,4.38,0,0,1-.88.09h-.37l-1.51-.15v3.17l14,1.6V28.71l-1.17-.17A5,5,0,0,1,153,28.2a2.07,2.07,0,0,1-1.11-1.42,11.75,11.75,0,0,1-.19-2.45V8a18.84,18.84,0,0,1,3.68.8,5,5,0,0,1,2.26,1.61,8.23,8.23,0,0,1,1.28,3.33l.17,1.17h3l0-.47a13.27,13.27,0,0,0,1.77,3.35,16.69,16.69,0,0,0,2.32,2.57,47.4,47.4,0,0,0,4,3.23,52.48,52.48,0,0,1,4.15,3.4,11.14,11.14,0,0,1,1.88,2.3,9.44,9.44,0,0,1,1,2.52,10.74,10.74,0,0,1,.39,2.79,5.11,5.11,0,0,1-1.54,4,4.05,4.05,0,0,1-2.65,1,4.39,4.39,0,0,1-1.17-.16c-2.5-.53-4.68-2.47-6.3-5.59a30.74,30.74,0,0,1-2.5-7.34l-.17-.85-3.11-.79L160,39.33l1.61.53,1.74.43V38.92h.12a.94.94,0,0,1,.28.1c.2.12,1.35.91,1.84,1.24a20,20,0,0,0,7,3.1,12.07,12.07,0,0,0,2.93.37,11.65,11.65,0,0,0,4.45-.88,9.42,9.42,0,0,0,4.82-5l.15-.36.34.09h0c1.05.24,16.78,4.34,21.63,6.5l.53.16.34.12,10.23,3.69V44.74l-.8-.36a4.19,4.19,0,0,1-1.44-1.05,3.82,3.82,0,0,1-.68-1.07,3.46,3.46,0,0,1-.3-1,7.7,7.7,0,0,1,.51-2.91l.39-1.18.33-1.16,6.19,2.28,2.32,6.1a9.3,9.3,0,0,1,.62,2.32.25.25,0,0,1-.07.26Zm-8-14.32,1.34-4.51,2.2,5.81Z" transform="translate(1.51 1.56)" opacity="0.3" style="isolation: isolate"/>
  <path d="M225.35,47.64h-.56a3.43,3.43,0,0,1-1.23-.22l-1-.37v2.36L236,56l-.32-3.34-.38-.17a6.59,6.59,0,0,1-1.08-.65,4.73,4.73,0,0,1-.91-.82,8.41,8.41,0,0,1-1.2-1.91c-.27-.56-.73-1.8-1.22-3.11l-.66-1.76L220.5,18.71l-2.09-.77L213,36.26c-.5,1.57-.89,2.76-1.19,3.51a6.42,6.42,0,0,1-.91,1.64,2.09,2.09,0,0,1-.93.73,2.24,2.24,0,0,1-.52.06,2.1,2.1,0,0,1-.74-.13l-.4-.15L209,34.5,207.18,34l-.12.82a6.09,6.09,0,0,1-.49,1.66,4.71,4.71,0,0,1-.95,1.35,3.39,3.39,0,0,1-2,1h-.9a9.41,9.41,0,0,1-2.69-.39A9.09,9.09,0,0,1,196.72,37a5.26,5.26,0,0,1-1.76-2.2,6.83,6.83,0,0,1-.48-1.93,34.23,34.23,0,0,1-.18-3.79V25.69h.15a8.07,8.07,0,0,1,2.14.78,4.09,4.09,0,0,1,1.26,1.08,5.47,5.47,0,0,1,.83,1.54,12.71,12.71,0,0,1,.5,2.36V32l1.82.46V20.71l-1.79-.54-.07.88a10.37,10.37,0,0,1-.37,2,1.6,1.6,0,0,1-.55.78,1.4,1.4,0,0,1-.92.31h0a10.26,10.26,0,0,1-2.46-.39l-.6-.14-.12-10,3.46.85a18.9,18.9,0,0,1,3.12,1,7.7,7.7,0,0,1,3.44,3.4,9.65,9.65,0,0,1,.79,2.67l.07.5,1.86.38-.49-7.87-.5-.13c-9.3-2.45-20.38-4.49-20.49-4.51l-.81-.19v1.81l.52.15a7.71,7.71,0,0,1,1.6.66,3.93,3.93,0,0,1,1.7,2.38,14.6,14.6,0,0,1,.23,2.88l.16,13.55a12,12,0,0,1-.16,2.68,1.66,1.66,0,0,1-.54.94,1.57,1.57,0,0,1-.8.35h-.4a4.78,4.78,0,0,1-1.13-.13l-.66-.15a12.3,12.3,0,0,0,.21-2.35A14.36,14.36,0,0,0,183,24.71a23.51,23.51,0,0,0-6.37-6.36l-3.72-2.74c-3.57-2.6-5.38-5.4-5.38-8.32a6.16,6.16,0,0,1,.37-2.08,4.48,4.48,0,0,1,1-1.57,4,4,0,0,1,2.8-1.13,4.25,4.25,0,0,1,1.22.19,7,7,0,0,1,3.24,1.64,12.86,12.86,0,0,1,2.7,3.72,20.06,20.06,0,0,1,1.17,2.79c.34,1,.74,2.5,1.22,4.37l.1.43,1.93.42-.2-12.86-1.84-.39-.17.66c-.15.58-.3.67-.38.67h0a2.64,2.64,0,0,1-.66-.25c-.32-.18-.9-.54-1.75-1.09a23.21,23.21,0,0,0-3-1.73,11.45,11.45,0,0,0-2.42-.8,8.34,8.34,0,0,0-7.29,1.51,9.13,9.13,0,0,0-2.68,3.53,11.51,11.51,0,0,0-1,4.66,12.41,12.41,0,0,0,2.42,7.43,16.33,16.33,0,0,0,2.23,2.47,47.86,47.86,0,0,0,3.92,3.19,51.45,51.45,0,0,1,4.21,3.45,11.73,11.73,0,0,1,2,2.44,10.44,10.44,0,0,1,1.1,2.68,11.5,11.5,0,0,1,.41,2.92,5.79,5.79,0,0,1-1.76,4.55,4.72,4.72,0,0,1-4.38,1c-2.68-.57-5-2.58-6.75-5.94a31.55,31.55,0,0,1-2.55-7.49l-.09-.45-1.91-.49-.1,13.2,1.11.37.94.23v-.8a.69.69,0,0,1,.6-.39h.27a1.43,1.43,0,0,1,.5.18c.19.11.94.62,1.89,1.27a19.31,19.31,0,0,0,6.8,3,11.11,11.11,0,0,0,6.95-.47,8.79,8.79,0,0,0,4.49-4.63,11.25,11.25,0,0,0,.62-1.8v1l.55.14c.16,0,16.74,4.29,21.76,6.53l.55.17h0l.35.12h0l9.36,3.38v-2L217,45a4.84,4.84,0,0,1-1.66-1.21,4.45,4.45,0,0,1-.78-1.22,3.88,3.88,0,0,1-.36-1.29,8.34,8.34,0,0,1,.54-3.12l.38-1.16.53-1.83,7.12,2.62,2.41,6.36a9.48,9.48,0,0,1,.65,2.4A.91.91,0,0,1,225.35,47.64Zm-9.08-14.56,2.06-6.93,3.39,8.93Z" transform="translate(1.51 1.56)" opacity="0.4" style="isolation: isolate"/>
  <path d="M66.83,38h-.22a2.44,2.44,0,0,1-.71-.1,1.75,1.75,0,0,1-.68-.46,12.09,12.09,0,0,1-1.44-1.89c-.66-1-6.18-10.06-7.33-12.07a21,21,0,0,0-1.18-2,4.31,4.31,0,0,0-1-1l-.18-.12.65-.33a8,8,0,0,0,1.63-1.21,7.25,7.25,0,0,0,2.43-5.51,5.66,5.66,0,0,0-4.71-5.74,15.59,15.59,0,0,0-2.46-.19,15.34,15.34,0,0,0-2.44.19c-.53.07-1.53.24-3.09.5L36.2,9.81v1.9l.83-.12a5.25,5.25,0,0,1,.79-.06,6.64,6.64,0,0,1,.77.05,2,2,0,0,1,.9.44,1.72,1.72,0,0,1,.6.94,12.55,12.55,0,0,1,.25,2.66l.26,13.71a13.76,13.76,0,0,1-.15,2.72,2.94,2.94,0,0,1-.57,1.32,6.52,6.52,0,0,1-.91.91,2.08,2.08,0,0,1-1,.48h-.08c-.14-.35-.27-.7-.41-1L24.89,3.12l-2.72.81L9.87,38.13C8.72,41.22,6.93,46,6.26,47.52a22.33,22.33,0,0,1-1.44,3,10.81,10.81,0,0,1-1.88,2.53A6.73,6.73,0,0,1,.48,54.59L0,54.71V57l15-5.47v-2.2l-.9.25a4.33,4.33,0,0,1-1.13.15,4.4,4.4,0,0,1-1.39-.23,2.11,2.11,0,0,1-1-1,3.27,3.27,0,0,1-.36-1.68,21.53,21.53,0,0,1,1.5-6l.83-2.24L14.13,34l12.59-3.71,3,7.37a7.55,7.55,0,0,1,.68,3,5,5,0,0,1-1.76,3.57,11.33,11.33,0,0,1-3.59,2.19l-.47.18v2.14l.92-.26c.13,0,13.43-3.81,20.32-5l.59-.1V41.1l-.86.17a15.28,15.28,0,0,1-2.69.3,3.08,3.08,0,0,1-1.3-.29A4.31,4.31,0,0,1,40,39.61a25.07,25.07,0,0,1-1.33-3.11L50.47,34V32.1l-.84.14a5,5,0,0,1-1,.08h-.55a2,2,0,0,1-.86-.46,1.88,1.88,0,0,1-.6-1,10,10,0,0,1-.26-2.37l-.11-5.91h.28a4.88,4.88,0,0,1,.93-.09h.36a2.48,2.48,0,0,1,.77.18,7.08,7.08,0,0,1,2.1,2.19c.88,1.27,6.24,10.07,7,11.62l1.42,2.76c.09.15.29.54.58,1.09l.3.57,7.61-1.09V37.94ZM15.3,30.78l5.47-15.45,4.95,12.38ZM51,18.64a5,5,0,0,1-1.61,1.21,15.83,15.83,0,0,1-3.19.79L46,10.13h.2A14.48,14.48,0,0,1,49,9.85h.23a3.5,3.5,0,0,1,1.58.44,3.86,3.86,0,0,1,1.4,1.57,5.2,5.2,0,0,1,.54,2.32A6.22,6.22,0,0,1,51,18.64Z" transform="translate(1.51 1.56)" opacity="0.45" style="isolation: isolate"/>
  <path d="M87.27,20.29V18.48L73.72,19.81v1.9l.87-.18a4.58,4.58,0,0,1,.9-.09,4.66,4.66,0,0,1,1.91.42,1.74,1.74,0,0,1,.65,1.67,4.58,4.58,0,0,1-1.11,2.82A6,6,0,0,1,75,27.88a6.86,6.86,0,0,1-2.51.73,6.93,6.93,0,0,1-.78.1A6.06,6.06,0,0,1,67,26.46a8.79,8.79,0,0,1-1.72-3.18,12.85,12.85,0,0,1-.48-4.09,15,15,0,0,1,3.06-8.55,10.17,10.17,0,0,1,2.85-2.81,8.71,8.71,0,0,1,3.71-1.12,5.21,5.21,0,0,1,.79,0,5.59,5.59,0,0,1,3.5,1.17,10.33,10.33,0,0,1,3,4.94l.16.63,1.69-.27.07-8.86-1.82.39-.1.35c-.21.54-.43.74-.58.75H81a1.34,1.34,0,0,1-.4,0l-1.1-.34a14.28,14.28,0,0,0-2.89-.6c-.5-.08-1-.13-1.52-.16a14.46,14.46,0,0,0-1.47.07A18.36,18.36,0,0,0,68.45,6,16.62,16.62,0,0,0,64,8.72a14.57,14.57,0,0,0-3.78,4.89,15,15,0,0,0-1.54,6.1A13.17,13.17,0,0,0,59.29,24a9.1,9.1,0,0,0,2,3.49,9.8,9.8,0,0,0,4.6,2.7,16.77,16.77,0,0,0,4.29.55,14.81,14.81,0,0,0,2-.11,22,22,0,0,0,4.82-1,17,17,0,0,0,4.11-2.06,2.05,2.05,0,0,1,.71-.35,3.09,3.09,0,0,1,.74.12l.91.25V24.35a7.64,7.64,0,0,1,.37-2.64,1.51,1.51,0,0,1,.62-.7,8.76,8.76,0,0,1,2.19-.59Z" transform="translate(1.51 1.56)" opacity="0.4" style="isolation: isolate"/>
  <path d="M107.19,20.58a14.44,14.44,0,0,1-.73,2.4,6.16,6.16,0,0,1-1,1.57,5,5,0,0,1-2.07,1.5,10.1,10.1,0,0,1-3.4.6h-.55a6.64,6.64,0,0,1-2.37-.44,2.75,2.75,0,0,1-1.35-1.38,4.65,4.65,0,0,1-.39-1.56c-.08-1.12-.1-2.26-.07-3.4l0-3.29H96a6.87,6.87,0,0,1,1.57.18,2.28,2.28,0,0,1,1,.57,3.09,3.09,0,0,1,.68,1.09,9.11,9.11,0,0,1,.41,2v.66h1.78l.24-10.78H100l-.07.64a8.88,8.88,0,0,1-.4,1.84,2.42,2.42,0,0,1-.59,1,2.09,2.09,0,0,1-1,.59,9.74,9.74,0,0,1-2.28.27h-.33l.14-9,3.29-.14h.65a13.51,13.51,0,0,1,2.2.18,4.24,4.24,0,0,1,3,2.06,6.4,6.4,0,0,1,.65,2.14l.07.63h1.8l-.26-7.19L86.31,4v1.8H87a5.46,5.46,0,0,1,1.45.2,1.83,1.83,0,0,1,.8.51,2,2,0,0,1,.54,1A11.54,11.54,0,0,1,90,10l-.2,12.75a11.56,11.56,0,0,1-.18,2.49A2.43,2.43,0,0,1,88,26.93a5,5,0,0,1-1.46.46l-.47.08-.11.46a1.05,1.05,0,0,0,.1,1l.24.29h.45c4.81-.63,21-.89,21.18-.9h.68l.41-8.35h-1.75Z" transform="translate(1.51 1.56)" opacity="0.4" style="isolation: isolate"/>
  <path d="M135.72,3.92l-9.6-.33V5.4h.67a5.32,5.32,0,0,1,1.42.32,2.73,2.73,0,0,1,.9.6,2.54,2.54,0,0,1,.6,1.09A12.79,12.79,0,0,1,130,10l.26,10.46L116.48,3.28h-7.89v1.9h.69a5.33,5.33,0,0,1,1.43.28,2.35,2.35,0,0,1,.86.6,2.4,2.4,0,0,1,.61,1.13,9,9,0,0,1,.27,2.19l.32,12.91a11.34,11.34,0,0,1-.12,2.47,2,2,0,0,1-1.37,1.55,4.54,4.54,0,0,1-1.41.29h-.69v1.78h9.54V26.71H118a4.4,4.4,0,0,1-1.3-.19,2.4,2.4,0,0,1-.9-.61,2.36,2.36,0,0,1-.6-1.08A12.62,12.62,0,0,1,115,22.3l-.32-13.08L130.72,29h1.87L132.12,9.9a11.72,11.72,0,0,1,.13-2.44,2,2,0,0,1,.51-1,2.71,2.71,0,0,1,1.83-.75h.3l.79.09Z" transform="translate(1.51 1.56)" opacity="0.35" style="isolation: isolate"/>
  <path d="M161,6.36l-.59-.08c-.1,0-10.61-1.45-23.79-2.23h-.74l-.29,7.34,1.75.38.12-.76a5.45,5.45,0,0,1,1-2.48,3.63,3.63,0,0,1,1.77-1.44,12.89,12.89,0,0,1,2.7-.28h1.12a6.86,6.86,0,0,1,1,.09h.67v17a11.56,11.56,0,0,1-.18,2.49,1.86,1.86,0,0,1-.54,1,1.82,1.82,0,0,1-.75.43,5.56,5.56,0,0,1-1,.1h-.44l-.79-.08v1.87l12.66,1.45V29.32l-.61-.09a5.29,5.29,0,0,1-1.41-.4A2.68,2.68,0,0,1,151.23,27a12.32,12.32,0,0,1-.2-2.57V7.28a20.17,20.17,0,0,1,4.55.91,5.71,5.71,0,0,1,2.58,1.86,9,9,0,0,1,1.38,3.6l.09.61h1.78Z" transform="translate(1.51 1.56)" opacity="0.4" style="isolation: isolate"/>
  <path d="M45.61,42.71c-7,1.2-20.39,5-20.39,5V47A11.92,11.92,0,0,0,29,44.71a5.73,5.73,0,0,0,2-4.07,8.54,8.54,0,0,0-.75-3.3l-.48-1.2-2.72-6.75-13.51,4-1.7,4.93-.83,2.23a22.55,22.55,0,0,0-1.56,6.26,4.05,4.05,0,0,0,.44,2.08,2.74,2.74,0,0,0,1.31,1.27,5,5,0,0,0,3,.12V51L.72,56v-.74a7.26,7.26,0,0,0,2.73-1.73,11.21,11.21,0,0,0,2-2.69,23.3,23.3,0,0,0,1.48-3.06c.67-1.58,2.5-6.32,3.61-9.41L22.72,4.49,24.47,4,36.79,34c.92,2.26,1.9,5.1,2.46,6a5.09,5.09,0,0,0,1.86,1.91,4,4,0,0,0,1.66.39A17,17,0,0,0,45.61,42ZM26.72,28.11l-6-14.83L14.14,31.85Z" transform="translate(1.51 1.56)" stroke="#666766" stroke-miterlimit="10" stroke-width="0.25" fill="url(#a)"/>
  <path d="M45.48,21.88l.13,6.58A10.69,10.69,0,0,0,45.88,31a2.61,2.61,0,0,0,.84,1.38,2.69,2.69,0,0,0,1.15.62,6.38,6.38,0,0,0,1.8,0v.43l-11.6,2.48v-.42a2.9,2.9,0,0,0,1.36-.64,7.87,7.87,0,0,0,1-1,3.69,3.69,0,0,0,.73-1.67,14.51,14.51,0,0,0,.16-2.87l-.26-13.69a13.07,13.07,0,0,0-.27-2.79,2.39,2.39,0,0,0-.85-1.36,2.56,2.56,0,0,0-1.22-.58,6,6,0,0,0-1.8,0v-.43l9.27-1.58c1.53-.26,2.53-.43,3.06-.5a14.76,14.76,0,0,1,4.69,0,4.91,4.91,0,0,1,4.11,5,6.56,6.56,0,0,1-2.19,5,7.88,7.88,0,0,1-1.51,1.12,17.84,17.84,0,0,1-2.23,1,4.71,4.71,0,0,1,1.73.68,3.63,3.63,0,0,1,.83.83q.38.52,1.14,1.89C57,25.9,62.57,35,63.17,35.93a12.4,12.4,0,0,0,1.52,2,2.54,2.54,0,0,0,.94.64,3.37,3.37,0,0,0,1.26.13v.42l-6.49.93c-.33-.63-.56-1.07-.66-1.24l-1.4-2.72c-.84-1.63-6.24-10.48-7.09-11.7A7.57,7.57,0,0,0,49,22a2.79,2.79,0,0,0-1.13-.3,5.5,5.5,0,0,0-1.46.09Zm0-.41.73-.13a16.67,16.67,0,0,0,3.41-.84,5.65,5.65,0,0,0,1.91-1.41,7,7,0,0,0,1.93-4.95,5.86,5.86,0,0,0-.64-2.66,4.56,4.56,0,0,0-1.66-1.85,4.14,4.14,0,0,0-1.94-.55A14.77,14.77,0,0,0,46,9.37l-.79.13Z" transform="translate(1.51 1.56)" stroke="#666766" stroke-miterlimit="10" stroke-width="0.25" fill="url(#b)"/>
  <path d="M82.88,5.18l-.06,7.36-.44.07a11.09,11.09,0,0,0-3.16-5.28A6.37,6.37,0,0,0,74.32,6a9.48,9.48,0,0,0-3.92,1.2,11,11,0,0,0-3.15,3,15.73,15.73,0,0,0-3.19,8.94,13.13,13.13,0,0,0,.51,4.32,9.44,9.44,0,0,0,1.86,3.44,6.75,6.75,0,0,0,6.11,2.45,7.4,7.4,0,0,0,2.75-.81,6.59,6.59,0,0,0,2.15-1.7,5.32,5.32,0,0,0,1.28-3.25,2.45,2.45,0,0,0-1-2.32,5.23,5.23,0,0,0-3.33-.42v-.39l12.16-1.19v.39a9.78,9.78,0,0,0-2.37.64,2.33,2.33,0,0,0-1,1.06,8.5,8.5,0,0,0-.48,3v2.28a3.77,3.77,0,0,0-1-.14,2.59,2.59,0,0,0-1.09.5,15.72,15.72,0,0,1-3.89,1.94,20.6,20.6,0,0,1-4.66,1,16.18,16.18,0,0,1-6-.42A9,9,0,0,1,61.8,27,8.26,8.26,0,0,1,60,23.8a12.32,12.32,0,0,1-.54-4.09,14.29,14.29,0,0,1,1.44-5.77,14,14,0,0,1,3.6-4.65,16.32,16.32,0,0,1,4.22-2.58,17.91,17.91,0,0,1,5-1.2,14.76,14.76,0,0,1,2.82,0,14.2,14.2,0,0,1,2.74.57l1.11.34a2.17,2.17,0,0,0,.76.08c.5,0,.91-.45,1.2-1.21Z" transform="translate(1.51 1.56)" stroke="#666766" stroke-miterlimit="10" stroke-width="0.25" fill="url(#c)"/>
  <path d="M106.16,4l.21,5.73H106a7.06,7.06,0,0,0-.72-2.38,5,5,0,0,0-3.52-2.44,13.71,13.71,0,0,0-3-.18l-4,.16-.17,10.42h1.07A10.57,10.57,0,0,0,98.06,15a2.9,2.9,0,0,0,1.35-.79,3.27,3.27,0,0,0,.76-1.21,10.48,10.48,0,0,0,.43-2H101l-.22,9.3h-.41a9.15,9.15,0,0,0-.44-2.14,3.83,3.83,0,0,0-.84-1.36A3,3,0,0,0,97.72,16a7.54,7.54,0,0,0-2.17-.19h-1l-.06,4a33.3,33.3,0,0,0,.07,3.46A5.36,5.36,0,0,0,95,25.1a3.51,3.51,0,0,0,1.81,1.77,7.4,7.4,0,0,0,3.26.47,10.76,10.76,0,0,0,3.64-.63A5.75,5.75,0,0,0,106.1,25a6.91,6.91,0,0,0,1.07-1.74,14.89,14.89,0,0,0,.77-2.54h.41L108,27.63s-16.36.26-21.27.9c-.1,0,0-.4,0-.4a5.81,5.81,0,0,0,1.67-.53,3.11,3.11,0,0,0,1.15-.77,3.17,3.17,0,0,0,.78-1.44,12.6,12.6,0,0,0,.2-2.67L90.72,10a12.77,12.77,0,0,0-.16-2.62,2.66,2.66,0,0,0-.74-1.39,2.54,2.54,0,0,0-1.1-.69A6.21,6.21,0,0,0,87.06,5v-.4Z" transform="translate(1.51 1.56)" stroke="#666766" stroke-miterlimit="10" stroke-width="0.25" fill="url(#d)"/>
  <path d="M113.81,7.05l.38,15.19a12.5,12.5,0,0,0,.26,2.66,3.1,3.1,0,0,0,.79,1.44,3.13,3.13,0,0,0,1.15.78,5.26,5.26,0,0,0,1.58.24v.35H109.9v-.38a5.33,5.33,0,0,0,1.63-.34,2.77,2.77,0,0,0,1.82-2.09,12.28,12.28,0,0,0,.14-2.64l-.32-12.89A9.82,9.82,0,0,0,112.88,7a3.09,3.09,0,0,0-.79-1.45A3,3,0,0,0,111,4.8a5.83,5.83,0,0,0-1.66-.33V4h6.82L131,22.56,130.64,10a13.29,13.29,0,0,0-.27-2.67,3.23,3.23,0,0,0-.78-1.44,3.58,3.58,0,0,0-1.15-.77,5.82,5.82,0,0,0-1.64-.37v-.4l8.16.28V5a3.43,3.43,0,0,0-2.73.92,2.74,2.74,0,0,0-.72,1.39,12.1,12.1,0,0,0-.14,2.62l.45,18.37H131Z" transform="translate(1.51 1.56)" stroke="#666766" stroke-miterlimit="10" stroke-width="0.25" fill="url(#e)"/>
  <path d="M146.56,6.24c-.75,0-1.55-.13-2.41-.17a13.76,13.76,0,0,0-4,.25,4.36,4.36,0,0,0-2.23,1.76,6.18,6.18,0,0,0-1.14,2.76l-.41-.09.24-6C149.92,5.53,160.35,7,160.35,7l.33,6.55h-.4a9.73,9.73,0,0,0-1.49-3.89,6.53,6.53,0,0,0-2.94-2.14,20.67,20.67,0,0,0-5.51-1V24.36a12.25,12.25,0,0,0,.21,2.7,3.45,3.45,0,0,0,1.86,2.39,6.14,6.14,0,0,0,1.62.47v.41l-11.18-1.27v-.41a5.59,5.59,0,0,0,1.63-.09,2.54,2.54,0,0,0,1.85-2,12.51,12.51,0,0,0,.2-2.66Z" transform="translate(1.51 1.56)" stroke="#666766" stroke-miterlimit="10" stroke-width="0.25" fill="url(#f)"/>
  <path d="M205.72,15.09l.4,6.41-.4-.09a10.31,10.31,0,0,0-.85-2.87,7.9,7.9,0,0,0-1.67-2.26,7.63,7.63,0,0,0-2.12-1.48,18.23,18.23,0,0,0-3.3-1.09l-4.35-1.07.13,11.5,1.14.28a11.54,11.54,0,0,0,2.61.41,2.13,2.13,0,0,0,1.41-.47,2.43,2.43,0,0,0,.78-1.11,11.11,11.11,0,0,0,.4-2.13l.43.13V31.5l-.44-.11a12.5,12.5,0,0,0-.53-2.5,6.48,6.48,0,0,0-.94-1.76,4.92,4.92,0,0,0-1.49-1.27A9.19,9.19,0,0,0,194.6,25l-1-.29.05,4.39a35.5,35.5,0,0,0,.18,3.86,7.48,7.48,0,0,0,.53,2.13,6.07,6.07,0,0,0,2,2.51,10,10,0,0,0,3.5,1.5,10.23,10.23,0,0,0,3.81.36,4.14,4.14,0,0,0,2.49-1.19,5,5,0,0,0,1.06-1.56,6.68,6.68,0,0,0,.55-1.85l.44.13-.75,7.78c-5.13-2.29-21.88-6.57-21.88-6.57v-.49a5.71,5.71,0,0,0,1.75.13,2.29,2.29,0,0,0,1.2-.5,2.39,2.39,0,0,0,.79-1.37,12.39,12.39,0,0,0,.18-2.85l-.16-13.52a15.07,15.07,0,0,0-.25-3,4.44,4.44,0,0,0-.82-1.76,4.66,4.66,0,0,0-1.2-1.1,8.19,8.19,0,0,0-1.78-.75v-.4S196.34,12.62,205.72,15.09Z" transform="translate(1.51 1.56)" stroke="#666766" stroke-miterlimit="10" stroke-width="0.25" fill="url(#g)"/>
  <path d="M235.22,54.79,223.3,49v-.87a4.21,4.21,0,0,0,2.25.2,1.62,1.62,0,0,0,1-1.86,10,10,0,0,0-.69-2.52l-.38-1-2.14-5.65-8.15-3-.75,2.57L214.07,38a9.12,9.12,0,0,0-.57,3.35,4.8,4.8,0,0,0,.42,1.58,5.31,5.31,0,0,0,.9,1.4,5.63,5.63,0,0,0,1.9,1.38v.48l-8.3-3v-.48a2.83,2.83,0,0,0,1.68.09,2.79,2.79,0,0,0,1.34-1,7.27,7.27,0,0,0,1-1.81c.31-.77.71-2,1.2-3.55l5.24-17.59,1.06.39,9.67,25.21c.73,1.91,1.5,4.08,1.91,4.93a9.38,9.38,0,0,0,1.29,2.06,5.59,5.59,0,0,0,1.06,1,6.24,6.24,0,0,0,1.19.71ZM222.93,36.28l-4.68-12.4-2.87,9.62Z" transform="translate(1.51 1.56)" stroke="#666766" stroke-miterlimit="10" stroke-width="0.25" fill="url(#h)"/>
  <path d="M161.41,38.39l.09-11.77.61.15a32.38,32.38,0,0,0,2.61,7.66q2.88,5.4,7.25,6.33a5.41,5.41,0,0,0,5-1.13,6.52,6.52,0,0,0,2-5.14,11.79,11.79,0,0,0-.43-3.07,11.26,11.26,0,0,0-1.17-2.85,12.82,12.82,0,0,0-2.16-2.6,52.5,52.5,0,0,0-4.24-3.5q-2-1.47-3.84-3.13A16.24,16.24,0,0,1,165,17a11.8,11.8,0,0,1-2.27-7,10.8,10.8,0,0,1,.9-4.38,8.32,8.32,0,0,1,2.47-3.25A7.67,7.67,0,0,1,172.72,1a11,11,0,0,1,2.31.76,23.49,23.49,0,0,1,2.82,1.67c.89.57,1.48.94,1.8,1.12a3.26,3.26,0,0,0,.85.33c.62.13,1-.26,1.24-1.19l.61.13.17,11.38-.6-.13c-.48-1.91-.89-3.38-1.23-4.42a20.29,20.29,0,0,0-1.21-2.89,13.56,13.56,0,0,0-2.85-3.91A7.65,7.65,0,0,0,173,2a4.68,4.68,0,0,0-4.68,1.18A5.21,5.21,0,0,0,167.24,5a6.79,6.79,0,0,0-.41,2.32q0,4.77,5.67,8.9L176.22,19a22.93,22.93,0,0,1,6.2,6.18,13.67,13.67,0,0,1,2.16,7.38,11.36,11.36,0,0,1-1,4.8,8.13,8.13,0,0,1-4.13,4.27A10.42,10.42,0,0,1,173,42a18.59,18.59,0,0,1-6.56-2.86c-1.09-.74-1.74-1.18-1.95-1.3a2.3,2.3,0,0,0-.72-.26,1.38,1.38,0,0,0-1.72.92v.08Z" transform="translate(1.51 1.56)" stroke="#666766" stroke-miterlimit="10" stroke-width="0.25" fill="url(#i)"/>
  <path d="M65.26,34.44l1.19,2a331.34,331.34,0,0,1,92.87.72V35A330.83,330.83,0,0,0,65.26,34.44Z" transform="translate(1.51 1.56)" fill="#847251"/>
  <path d="M43.08,39.77a3.2,3.2,0,0,0,.89.52q6.3-1.34,12.71-2.41L55.6,36c-4.51.77-9,1.65-13.42,2.61A4.51,4.51,0,0,0,43.08,39.77Z" transform="translate(1.51 1.56)" fill="#847251"/>
  <path d="M26.88,43.79A7.64,7.64,0,0,0,28.07,42Q19.9,44.22,12,46.91a2.93,2.93,0,0,0,.73.8,3,3,0,0,0,1.64.55Q20,46.39,25.72,44.71A6.43,6.43,0,0,0,26.88,43.79Z" transform="translate(1.51 1.56)" fill="#847251"/>
  <path d="M235.22,58.21a236.47,236.47,0,0,0-50.93-18.33,11.28,11.28,0,0,1-1.57,1.74,238.22,238.22,0,0,1,52.5,18.71Z" transform="translate(1.51 1.56)" fill="#847251"/>
</svg>
