<svg xmlns="http://www.w3.org/2000/svg" xmlns:xlink="http://www.w3.org/1999/xlink" viewBox="0 0 236.06 60.33">
  <defs>
    <linearGradient id="a" x1="22.7" y1="12.81" x2="11.29" y2="55.4" gradientTransform="matrix(1, 0, 0, -1, 0, 62)" gradientUnits="userSpaceOnUse">
      <stop offset="0.06" stop-color="#4f322b"/>
      <stop offset="0.16" stop-color="#ebdc9e"/>
      <stop offset="0.28" stop-color="#ebdc9e"/>
      <stop offset="0.42" stop-color="#634a2b"/>
      <stop offset="0.59" stop-color="#ab8f62"/>
      <stop offset="0.78" stop-color="#ebdc9e"/>
    </linearGradient>
    <linearGradient id="b" x1="52.51" y1="21.18" x2="46.69" y2="54.17" gradientTransform="matrix(1, 0, 0, -1, 0, 62)" gradientUnits="userSpaceOnUse">
      <stop offset="0.07" stop-color="#4f322b"/>
      <stop offset="0.23" stop-color="#ebdc9e"/>
      <stop offset="0.33" stop-color="#ebdc9e"/>
      <stop offset="0.45" stop-color="#634a2b"/>
      <stop offset="0.64" stop-color="#ab8f62"/>
      <stop offset="0.85" stop-color="#ebdc9e"/>
    </linearGradient>
    <linearGradient id="c" x1="73.13" y1="32.94" x2="71.03" y2="57.03" gradientTransform="matrix(1, 0, 0, -1, 0, 62)" gradientUnits="userSpaceOnUse">
      <stop offset="0.03" stop-color="#4f322b"/>
      <stop offset="0.13" stop-color="#ebdc9e"/>
      <stop offset="0.23" stop-color="#ebdc9e"/>
      <stop offset="0.34" stop-color="#634a2b"/>
      <stop offset="0.51" stop-color="#ab8f62"/>
      <stop offset="0.94" stop-color="#ebdc9e"/>
    </linearGradient>
    <linearGradient id="d" x1="96.75" y1="34.19" x2="96.75" y2="58.73" gradientTransform="matrix(1, 0, 0, -1, 0, 62)" gradientUnits="userSpaceOnUse">
      <stop offset="0.04" stop-color="#4f322b"/>
      <stop offset="0.15" stop-color="#ebdc9e"/>
      <stop offset="0.26" stop-color="#ebdc9e"/>
      <stop offset="0.36" stop-color="#634a2b"/>
      <stop offset="0.48" stop-color="#ab8f62"/>
      <stop offset="0.85" stop-color="#ebdc9e"/>
    </linearGradient>
    <linearGradient id="e" x1="121.41" y1="34.38" x2="121.41" y2="58.73" gradientTransform="matrix(1, 0, 0, -1, 0, 62)" gradientUnits="userSpaceOnUse">
      <stop offset="0.06" stop-color="#4f322b"/>
      <stop offset="0.19" stop-color="#ebdc9e"/>
      <stop offset="0.33" stop-color="#ebdc9e"/>
      <stop offset="0.46" stop-color="#634a2b"/>
      <stop offset="0.64" stop-color="#ab8f62"/>
      <stop offset="0.85" stop-color="#ebdc9e"/>
    </linearGradient>
    <linearGradient id="f" x1="146.13" y1="33.01" x2="148.23" y2="57.02" gradientTransform="matrix(1, 0, 0, -1, 0, 62)" gradientUnits="userSpaceOnUse">
      <stop offset="0.06" stop-color="#4f322b"/>
      <stop offset="0.18" stop-color="#ebdc9e"/>
      <stop offset="0.32" stop-color="#ebdc9e"/>
      <stop offset="0.4" stop-color="#634a2b"/>
      <stop offset="0.52" stop-color="#ab8f62"/>
      <stop offset="0.83" stop-color="#ebdc9e"/>
    </linearGradient>
    <linearGradient id="g" x1="193.24" y1="22.32" x2="198.07" y2="49.74" gradientTransform="matrix(1, 0, 0, -1, 0, 62)" gradientUnits="userSpaceOnUse">
      <stop offset="0.06" stop-color="#4f322b"/>
      <stop offset="0.23" stop-color="#ebdc9e"/>
      <stop offset="0.31" stop-color="#ebdc9e"/>
      <stop offset="0.4" stop-color="#634a2b"/>
      <stop offset="0.52" stop-color="#ab8f62"/>
      <stop offset="0.85" stop-color="#ebdc9e"/>
    </linearGradient>
    <linearGradient id="h" x1="220.49" y1="11.68" x2="228.38" y2="41.12" gradientTransform="matrix(1, 0, 0, -1, 0, 62)" gradientUnits="userSpaceOnUse">
      <stop offset="0.06" stop-color="#4f322b"/>
      <stop offset="0.16" stop-color="#ebdc9e"/>
      <stop offset="0.25" stop-color="#ebdc9e"/>
      <stop offset="0.37" stop-color="#634a2b"/>
      <stop offset="0.49" stop-color="#ab8f62"/>
      <stop offset="0.85" stop-color="#ebdc9e"/>
    </linearGradient>
    <linearGradient id="i" x1="167.7" y1="21.94" x2="177.95" y2="60.18" gradientTransform="matrix(1, 0, 0, -1, 0, 62)" gradientUnits="userSpaceOnUse">
      <stop offset="0.08" stop-color="#4f322b"/>
      <stop offset="0.28" stop-color="#ebdc9e"/>
      <stop offset="0.38" stop-color="#ebdc9e"/>
      <stop offset="0.46" stop-color="#634a2b"/>
      <stop offset="0.56" stop-color="#ab8f62"/>
      <stop offset="0.85" stop-color="#ebdc9e"/>
    </linearGradient>
  </defs>
  <title>argentsealogo-gold</title>
  <path d="M224.63,46.93a3.52,3.52,0,0,1-.56,0,3.43,3.43,0,0,1-1.23-.22l-1-.37v2.36l13.48,6.57L235,51.93l-.38-.17a5.84,5.84,0,0,1-1.08-.65,4.76,4.76,0,0,1-.91-.82,8.33,8.33,0,0,1-1.2-1.91c-.27-.56-.73-1.8-1.22-3.11l-.66-1.76L219.78,18l-2.09-.77-5.45,18.32c-.5,1.57-.89,2.76-1.19,3.51a6.45,6.45,0,0,1-.91,1.64,2.08,2.08,0,0,1-.93.73,2.31,2.31,0,0,1-.52.06,2.1,2.1,0,0,1-.74-.13l-.4-.15.72-7.42-1.81-.53-.12.82a6.09,6.09,0,0,1-.49,1.66,4.66,4.66,0,0,1-.95,1.35,3.39,3.39,0,0,1-2,1c-.3,0-.6,0-.9,0a9.67,9.67,0,0,1-2.69-.39A9.11,9.11,0,0,1,196,36.33a5.25,5.25,0,0,1-1.76-2.2,6.75,6.75,0,0,1-.48-1.93,34.11,34.11,0,0,1-.18-3.79l0-3.43.15,0a8.44,8.44,0,0,1,2.14.78,4.23,4.23,0,0,1,1.26,1.08,5.61,5.61,0,0,1,.83,1.54,12.71,12.71,0,0,1,.5,2.36l0,.5,1.82.46V20l-1.79-.54-.07.88a10.45,10.45,0,0,1-.37,2,1.6,1.6,0,0,1-.55.78,1.44,1.44,0,0,1-.92.31h0a10.42,10.42,0,0,1-2.46-.39l-.6-.14-.12-10,3.46.85a18.73,18.73,0,0,1,3.12,1,7.69,7.69,0,0,1,3.44,3.4,9.45,9.45,0,0,1,.79,2.67l.07.5,1.86.38-.49-7.87-.5-.13c-9.3-2.45-20.38-4.49-20.49-4.51L183.85,9v1.81l.52.15a7.36,7.36,0,0,1,1.6.66,3.92,3.92,0,0,1,1.7,2.38,14.6,14.6,0,0,1,.23,2.88l.16,13.55a12,12,0,0,1-.16,2.68,1.66,1.66,0,0,1-.54.94,1.51,1.51,0,0,1-.8.35h-.4a4.78,4.78,0,0,1-1.13-.13l-.66-.15a12.37,12.37,0,0,0,.21-2.35A14.36,14.36,0,0,0,182.3,24a23.51,23.51,0,0,0-6.37-6.36l-3.72-2.74c-3.57-2.6-5.38-5.4-5.38-8.32a6.2,6.2,0,0,1,.37-2.08,4.65,4.65,0,0,1,1-1.57A4,4,0,0,1,171,1.8a4.22,4.22,0,0,1,1.22.19,7,7,0,0,1,3.24,1.64,12.91,12.91,0,0,1,2.7,3.72,19.38,19.38,0,0,1,1.17,2.79c.34,1,.74,2.5,1.22,4.37l.1.43,1.93.42-.2-12.86-1.84-.39-.17.66c-.15.58-.3.67-.38.67h0a2.5,2.5,0,0,1-.66-.25c-.32-.18-.9-.54-1.75-1.09A23,23,0,0,0,174.61.37a11.44,11.44,0,0,0-2.42-.8,8.31,8.31,0,0,0-7.29,1.51,9.13,9.13,0,0,0-2.68,3.53,11.51,11.51,0,0,0-1,4.66,12.41,12.41,0,0,0,2.42,7.43,16.43,16.43,0,0,0,2.23,2.47,48.31,48.31,0,0,0,3.92,3.19A50.87,50.87,0,0,1,174,25.81a11.76,11.76,0,0,1,2,2.44,10.16,10.16,0,0,1,1.1,2.68,11.19,11.19,0,0,1,.41,2.92,5.78,5.78,0,0,1-1.76,4.55,4.7,4.7,0,0,1-3.08,1.15,5.08,5.08,0,0,1-1.3-.18c-2.68-.57-5-2.58-6.75-5.94a31.55,31.55,0,0,1-2.55-7.49l-.09-.45L160.07,25l-.1,13.2,1.11.37.94.23V38a.68.68,0,0,1,.6-.39.91.91,0,0,1,.27,0,1.43,1.43,0,0,1,.5.18c.19.11.94.62,1.89,1.27a19.39,19.39,0,0,0,6.8,3,11.09,11.09,0,0,0,6.95-.47,8.79,8.79,0,0,0,4.49-4.63,11.25,11.25,0,0,0,.62-1.8v1l.55.14c.16,0,16.74,4.29,21.76,6.53L207,43v0l.35.12,0,0h0l9.36,3.38v-2l-.42-.19a4.87,4.87,0,0,1-1.66-1.21,4.54,4.54,0,0,1-.78-1.22,3.91,3.91,0,0,1-.36-1.29,8.41,8.41,0,0,1,.54-3.12l.38-1.16.53-1.83,7.12,2.62,2.41,6.36a9.33,9.33,0,0,1,.65,2.4A.91.91,0,0,1,224.63,46.93Zm-9.08-14.56,2.06-6.93L221,34.37Z" transform="translate(0.72 0.71)" opacity="0.35"/>
  <path d="M66.11,37.3h-.22a2.48,2.48,0,0,1-.71-.1,1.75,1.75,0,0,1-.68-.46,12.09,12.09,0,0,1-1.44-1.89c-.66-1-6.18-10.06-7.33-12.07a21,21,0,0,0-1.18-2,4.3,4.3,0,0,0-1-1l-.18-.12.65-.33a8.21,8.21,0,0,0,1.63-1.21,7.23,7.23,0,0,0,2.43-5.51,5.65,5.65,0,0,0-4.71-5.74,15.59,15.59,0,0,0-2.46-.19,15.16,15.16,0,0,0-2.44.19c-.53.07-1.53.24-3.09.5L35.48,9.1V11l.83-.12a5.25,5.25,0,0,1,.79-.06,6.23,6.23,0,0,1,.77.05,1.9,1.9,0,0,1,.9.44,1.7,1.7,0,0,1,.6.94,12.37,12.37,0,0,1,.25,2.66l.26,13.71a13.8,13.8,0,0,1-.15,2.72,2.91,2.91,0,0,1-.57,1.32,6.52,6.52,0,0,1-.91.91,2.1,2.1,0,0,1-1,.48l-.08,0c-.14-.35-.27-.7-.41-1L24.17,2.41l-2.72.81L9.15,37.42C8,40.51,6.21,45.24,5.54,46.81a22.05,22.05,0,0,1-1.44,3,10.81,10.81,0,0,1-1.88,2.53A6.7,6.7,0,0,1-.24,53.88L-.72,54v2.28l15-5.47v-2.2l-.9.25a4.33,4.33,0,0,1-1.13.15,4.4,4.4,0,0,1-1.39-.23,2.08,2.08,0,0,1-1-1,3.3,3.3,0,0,1-.36-1.68A21.73,21.73,0,0,1,11,40.08l.83-2.24,1.58-4.58L26,29.55l3,7.37a7.65,7.65,0,0,1,.68,3,5,5,0,0,1-1.76,3.57,11.22,11.22,0,0,1-3.59,2.19l-.47.18V48l.92-.26c.13,0,13.43-3.81,20.32-5l.59-.1V40.39l-.86.17a15.49,15.49,0,0,1-2.69.3,3,3,0,0,1-1.3-.29,4.31,4.31,0,0,1-1.61-1.67,25.15,25.15,0,0,1-1.33-3.11l11.85-2.53V31.39l-.84.14a5,5,0,0,1-.95.08l-.55,0a2,2,0,0,1-.86-.46,1.92,1.92,0,0,1-.6-1,9.84,9.84,0,0,1-.26-2.37l-.11-5.91.28,0a4.88,4.88,0,0,1,.93-.09h.36a2.3,2.3,0,0,1,.77.18,7,7,0,0,1,2.1,2.19c.88,1.27,6.24,10.07,7,11.62l1.42,2.76c.09.15.29.54.58,1.09l.3.57,7.61-1.09V37.23ZM14.58,30.07l5.47-15.45L25,27ZM50.27,17.93a5,5,0,0,1-1.61,1.21,16.18,16.18,0,0,1-3.19.79l-.2-10.51.2,0a14.32,14.32,0,0,1,2.78-.28h.23a3.52,3.52,0,0,1,1.58.44,3.87,3.87,0,0,1,1.4,1.57A5.15,5.15,0,0,1,52,13.47,6.24,6.24,0,0,1,50.27,17.93Z" transform="translate(0.72 0.71)" opacity="0.35"/>
  <path d="M86.55,19.58V17.77L73,19.1V21l.87-.18a4.5,4.5,0,0,1,.9-.09,4.63,4.63,0,0,1,1.91.42,1.75,1.75,0,0,1,.65,1.67,4.61,4.61,0,0,1-1.11,2.82,5.9,5.9,0,0,1-1.93,1.53,6.75,6.75,0,0,1-2.51.73A6.47,6.47,0,0,1,71,28a6.06,6.06,0,0,1-4.71-2.25,8.87,8.87,0,0,1-1.72-3.18,12.81,12.81,0,0,1-.48-4.09,15,15,0,0,1,3.06-8.55A10.2,10.2,0,0,1,70,7.12,8.73,8.73,0,0,1,73.71,6,5.25,5.25,0,0,1,74.5,6,5.6,5.6,0,0,1,78,7.17a10.31,10.31,0,0,1,3,4.94l.16.63,1.69-.27.07-8.86L81.1,4,81,4.35c-.21.54-.43.74-.58.75h-.1a1.75,1.75,0,0,1-.4,0l-1.1-.34a14,14,0,0,0-2.89-.6A14.52,14.52,0,0,0,74.41,4a14.33,14.33,0,0,0-1.47.07,18.36,18.36,0,0,0-5.21,1.25,16.72,16.72,0,0,0-4.41,2.69,14.57,14.57,0,0,0-3.78,4.89A15,15,0,0,0,58,19a13.14,13.14,0,0,0,.57,4.32,9.12,9.12,0,0,0,2,3.49,9.77,9.77,0,0,0,4.6,2.7,16.83,16.83,0,0,0,4.29.55,15.76,15.76,0,0,0,2-.11,21.78,21.78,0,0,0,4.82-1,16.84,16.84,0,0,0,4.11-2.06,2.14,2.14,0,0,1,.71-.35,3.09,3.09,0,0,1,.74.12l.91.25V23.64A7.61,7.61,0,0,1,83.12,21a1.48,1.48,0,0,1,.62-.7,8.76,8.76,0,0,1,2.19-.59Z" transform="translate(0.72 0.71)" opacity="0.35"/>
  <path d="M106.47,19.87a14.15,14.15,0,0,1-.73,2.4,6.19,6.19,0,0,1-1,1.57,5.05,5.05,0,0,1-2.07,1.5,10.17,10.17,0,0,1-3.4.6l-.55,0a6.52,6.52,0,0,1-2.37-.44A2.77,2.77,0,0,1,95,24.12a4.65,4.65,0,0,1-.39-1.56c-.08-1.12-.1-2.26-.07-3.4l.05-3.29h.73a7,7,0,0,1,1.57.18,2.24,2.24,0,0,1,1,.57,3,3,0,0,1,.68,1.09,8.85,8.85,0,0,1,.41,2l0,.66h1.78L101,9.59H99.24l-.07.64a9.26,9.26,0,0,1-.4,1.84,2.49,2.49,0,0,1-.59.95,2.1,2.1,0,0,1-1,.59,9.67,9.67,0,0,1-2.28.27h-.33l.14-9L98,4.74h.65a13.6,13.6,0,0,1,2.2.18,4.22,4.22,0,0,1,3,2.06,6.4,6.4,0,0,1,.65,2.14l.07.63h1.8l-.26-7.19-20.52.69V5.05h.72a5.34,5.34,0,0,1,1.45.2,1.86,1.86,0,0,1,.8.51,2,2,0,0,1,.54,1,11.5,11.5,0,0,1,.15,2.49L89.05,22a12,12,0,0,1-.18,2.49,2.44,2.44,0,0,1-1.55,1.73,5,5,0,0,1-1.46.46l-.47.08-.11.46a1.07,1.07,0,0,0,.1,1l.24.29h.45c4.81-.63,21-.89,21.18-.9h.68l.41-8.35h-1.75Z" transform="translate(0.72 0.71)" opacity="0.35"/>
  <path d="M135,3.21l-9.6-.33V4.69l.67,0a5.23,5.23,0,0,1,1.42.32,2.68,2.68,0,0,1,.9.6,2.55,2.55,0,0,1,.6,1.09,12.65,12.65,0,0,1,.25,2.54l.26,10.46L115.76,2.57h-7.89v1.9l.69,0a5.5,5.5,0,0,1,1.43.28,2.31,2.31,0,0,1,.86.6,2.4,2.4,0,0,1,.61,1.13,8.88,8.88,0,0,1,.27,2.19l.32,12.91a11.28,11.28,0,0,1-.12,2.47,2.05,2.05,0,0,1-1.37,1.55,4.6,4.6,0,0,1-1.41.29l-.69,0v1.78H118V26h-.72a4.49,4.49,0,0,1-1.3-.19,2.48,2.48,0,0,1-.9-.61,2.33,2.33,0,0,1-.6-1.08,12.55,12.55,0,0,1-.25-2.53l-.32-13.08L130,28.32h1.87l-.47-19.13a11.65,11.65,0,0,1,.13-2.44,2,2,0,0,1,.51-1A2.69,2.69,0,0,1,133.87,5l.3,0,.79.09Z" transform="translate(0.72 0.71)" opacity="0.35"/>
  <path d="M160.32,5.65l-.59-.08c-.1,0-10.61-1.45-23.79-2.23l-.74,0-.29,7.34,1.75.38.12-.76a5.51,5.51,0,0,1,1-2.48,3.66,3.66,0,0,1,1.77-1.44,13,13,0,0,1,2.7-.28c.37,0,.73,0,1.12,0s.71.05,1,.09l.67,0,0,17a11.47,11.47,0,0,1-.18,2.49,1.87,1.87,0,0,1-.54,1,1.79,1.79,0,0,1-.75.43,5.34,5.34,0,0,1-1,.1l-.44,0-.79-.08V29L154,30.45V28.61l-.61-.09a5.35,5.35,0,0,1-1.41-.4,2.7,2.7,0,0,1-1.47-1.88,12.17,12.17,0,0,1-.2-2.57V6.57a20.06,20.06,0,0,1,4.55.91,5.74,5.74,0,0,1,2.58,1.86,9,9,0,0,1,1.38,3.6l.09.61h1.78Z" transform="translate(0.72 0.71)" opacity="0.35"/>
  <path d="M44.89,42c-7,1.2-20.39,5-20.39,5v-.7A12,12,0,0,0,28.32,44a5.73,5.73,0,0,0,2-4.07,8.54,8.54,0,0,0-.75-3.3l-.48-1.2-2.72-6.75-13.51,4-1.7,4.93-.83,2.23A22.4,22.4,0,0,0,8.77,46.1a4.05,4.05,0,0,0,.44,2.08,2.74,2.74,0,0,0,1.31,1.27,5,5,0,0,0,3,.12v.75L0,55.27v-.74A7.26,7.26,0,0,0,2.73,52.8a11.21,11.21,0,0,0,2-2.69,23.3,23.3,0,0,0,1.48-3.06c.67-1.58,2.5-6.32,3.61-9.41L22,3.78l1.75-.52,12.32,30c.92,2.26,1.9,5.1,2.46,6a5.09,5.09,0,0,0,1.86,1.91,4,4,0,0,0,1.66.39,17,17,0,0,0,2.84-.32ZM26,27.4,20,12.57,13.42,31.14Z" transform="translate(0.72 0.71)" stroke="#666766" stroke-miterlimit="10" stroke-width="0.25" fill="url(#a)"/>
  <path d="M44.76,21.17l.13,6.58a10.69,10.69,0,0,0,.27,2.52A2.61,2.61,0,0,0,46,31.65a2.69,2.69,0,0,0,1.15.62,6.38,6.38,0,0,0,1.8-.05v.43l-11.6,2.48v-.42a2.9,2.9,0,0,0,1.36-.64,7.87,7.87,0,0,0,1-1,3.69,3.69,0,0,0,.73-1.67,14.51,14.51,0,0,0,.16-2.87l-.26-13.69a13.07,13.07,0,0,0-.27-2.79,2.39,2.39,0,0,0-.85-1.36A2.56,2.56,0,0,0,38,10.11a6,6,0,0,0-1.8,0V9.68L45.47,8.1C47,7.84,48,7.67,48.53,7.6a14.76,14.76,0,0,1,4.69,0,4.91,4.91,0,0,1,4.11,5,6.56,6.56,0,0,1-2.19,5,7.88,7.88,0,0,1-1.51,1.12,17.84,17.84,0,0,1-2.23,1,4.71,4.71,0,0,1,1.73.68,3.63,3.63,0,0,1,.83.83q.38.52,1.14,1.89c1.18,2.07,6.75,11.16,7.35,12.1a12.4,12.4,0,0,0,1.52,2,2.54,2.54,0,0,0,.94.64,3.37,3.37,0,0,0,1.26.13v.42l-6.49.93c-.33-.63-.56-1.07-.66-1.24l-1.4-2.72c-.84-1.63-6.24-10.48-7.09-11.7a7.57,7.57,0,0,0-2.3-2.38A2.79,2.79,0,0,0,47.1,21a5.5,5.5,0,0,0-1.46.09Zm0-.41.73-.13a16.67,16.67,0,0,0,3.41-.84,5.65,5.65,0,0,0,1.91-1.41,7,7,0,0,0,1.93-4.95,5.86,5.86,0,0,0-.64-2.66,4.56,4.56,0,0,0-1.66-1.85,4.14,4.14,0,0,0-1.94-.55,14.77,14.77,0,0,0-3.18.29l-.79.13Z" transform="translate(0.72 0.71)" stroke="#666766" stroke-miterlimit="10" stroke-width="0.25" fill="url(#b)"/>
  <path d="M82.16,4.47l-.06,7.36-.44.07A11.09,11.09,0,0,0,78.5,6.62a6.37,6.37,0,0,0-4.9-1.35,9.48,9.48,0,0,0-3.92,1.2,11,11,0,0,0-3.15,3,15.73,15.73,0,0,0-3.19,8.94,13.13,13.13,0,0,0,.51,4.32,9.44,9.44,0,0,0,1.86,3.44,6.75,6.75,0,0,0,6.11,2.45,7.4,7.4,0,0,0,2.75-.81,6.59,6.59,0,0,0,2.15-1.7A5.32,5.32,0,0,0,78,22.86a2.45,2.45,0,0,0-1-2.32,5.23,5.23,0,0,0-3.33-.42v-.39l12.16-1.19v.39a9.78,9.78,0,0,0-2.37.64,2.33,2.33,0,0,0-1,1.06,8.5,8.5,0,0,0-.48,3v2.28a3.77,3.77,0,0,0-1-.14,2.59,2.59,0,0,0-1.09.5A15.72,15.72,0,0,1,76,28.21a20.6,20.6,0,0,1-4.66,1,16.18,16.18,0,0,1-6-.42,9,9,0,0,1-4.26-2.5,8.26,8.26,0,0,1-1.8-3.2A12.32,12.32,0,0,1,58.74,19a14.29,14.29,0,0,1,1.44-5.77,14,14,0,0,1,3.6-4.65A16.16,16.16,0,0,1,68,6a17.91,17.91,0,0,1,5-1.2,14.76,14.76,0,0,1,2.82,0,14.2,14.2,0,0,1,2.74.57l1.11.34a2.17,2.17,0,0,0,.76.08c.5,0,.91-.45,1.2-1.21Z" transform="translate(0.72 0.71)" stroke="#666766" stroke-miterlimit="10" stroke-width="0.25" fill="url(#c)"/>
  <path d="M105.44,3.27,105.65,9h-.41a7.06,7.06,0,0,0-.72-2.38A5,5,0,0,0,101,4.18,13.71,13.71,0,0,0,98,4l-4,.16-.17,10.42H94.9a10.57,10.57,0,0,0,2.44-.29,2.9,2.9,0,0,0,1.35-.79,3.27,3.27,0,0,0,.76-1.21,10.48,10.48,0,0,0,.43-2h.41l-.22,9.3h-.41a9.15,9.15,0,0,0-.44-2.14,3.83,3.83,0,0,0-.84-1.36A3,3,0,0,0,97,15.32a7.54,7.54,0,0,0-2.17-.19h-1l-.06,4a33.3,33.3,0,0,0,.07,3.46,5.36,5.36,0,0,0,.45,1.8,3.51,3.51,0,0,0,1.81,1.77,7.4,7.4,0,0,0,3.26.47A10.74,10.74,0,0,0,103,26a5.75,5.75,0,0,0,2.38-1.72,6.91,6.91,0,0,0,1.07-1.74,14.89,14.89,0,0,0,.77-2.54h.41l-.34,6.92s-16.36.26-21.27.9c-.1,0,0-.4,0-.4a5.81,5.81,0,0,0,1.67-.53,3.11,3.11,0,0,0,1.15-.77,3.17,3.17,0,0,0,.78-1.44,12.6,12.6,0,0,0,.2-2.67L90,9.24a12.77,12.77,0,0,0-.16-2.62,2.73,2.73,0,0,0-.74-1.39A2.54,2.54,0,0,0,88,4.54a6.21,6.21,0,0,0-1.66-.23v-.4Z" transform="translate(0.72 0.71)" stroke="#666766" stroke-miterlimit="10" stroke-width="0.25" fill="url(#d)"/>
  <path d="M113.09,6.34l.38,15.19a12.5,12.5,0,0,0,.26,2.66,3.1,3.1,0,0,0,.79,1.44,3.13,3.13,0,0,0,1.15.78,5.26,5.26,0,0,0,1.58.24V27h-8.07v-.38a5.33,5.33,0,0,0,1.63-.34,2.77,2.77,0,0,0,1.82-2.09,12.28,12.28,0,0,0,.14-2.64l-.32-12.89a9.82,9.82,0,0,0-.29-2.35,3.09,3.09,0,0,0-.79-1.45,3,3,0,0,0-1.12-.77,5.83,5.83,0,0,0-1.66-.33V3.27h6.82l14.82,18.58-.31-12.6a13.29,13.29,0,0,0-.27-2.67,3.23,3.23,0,0,0-.78-1.44,3.58,3.58,0,0,0-1.15-.77A5.82,5.82,0,0,0,126.08,4V3.6l8.16.28v.4a3.43,3.43,0,0,0-2.73.92,2.74,2.74,0,0,0-.72,1.39,12.1,12.1,0,0,0-.14,2.62l.45,18.37h-.79Z" transform="translate(0.72 0.71)" stroke="#666766" stroke-miterlimit="10" stroke-width="0.25" fill="url(#e)"/>
  <path d="M145.84,5.53c-.75,0-1.55-.13-2.41-.17a13.76,13.76,0,0,0-4,.25,4.36,4.36,0,0,0-2.23,1.76,6.18,6.18,0,0,0-1.14,2.76l-.41-.09.24-6c13.31.78,23.74,2.22,23.74,2.22l.33,6.55h-.4a9.73,9.73,0,0,0-1.49-3.89,6.53,6.53,0,0,0-2.94-2.14,20.67,20.67,0,0,0-5.51-1V23.65a12.25,12.25,0,0,0,.21,2.7,3.45,3.45,0,0,0,1.86,2.39,6.14,6.14,0,0,0,1.62.47v.41l-11.18-1.27v-.41a5.59,5.59,0,0,0,1.63-.09,2.54,2.54,0,0,0,1.85-2,12.51,12.51,0,0,0,.2-2.66Z" transform="translate(0.72 0.71)" stroke="#666766" stroke-miterlimit="10" stroke-width="0.25" fill="url(#f)"/>
  <path d="M205,14.38l.4,6.41L205,20.7a10.31,10.31,0,0,0-.85-2.87,7.9,7.9,0,0,0-1.67-2.26,7.63,7.63,0,0,0-2.12-1.48A18.63,18.63,0,0,0,197.06,13l-4.35-1.07.13,11.5,1.14.28a11.54,11.54,0,0,0,2.61.41,2.13,2.13,0,0,0,1.41-.47,2.43,2.43,0,0,0,.78-1.11,11.11,11.11,0,0,0,.4-2.13l.43.13V30.79l-.44-.11a12.5,12.5,0,0,0-.53-2.5,6.48,6.48,0,0,0-.94-1.76,4.92,4.92,0,0,0-1.49-1.27,9.19,9.19,0,0,0-2.33-.86l-1-.29.05,4.39a35.5,35.5,0,0,0,.18,3.86,7.48,7.48,0,0,0,.53,2.13,6.07,6.07,0,0,0,2,2.51,10,10,0,0,0,3.5,1.5,10.23,10.23,0,0,0,3.81.36,4.14,4.14,0,0,0,2.49-1.19A5.11,5.11,0,0,0,206.5,36a6.68,6.68,0,0,0,.55-1.85l.44.13-.75,7.78c-5.13-2.29-21.88-6.57-21.88-6.57V35a5.71,5.71,0,0,0,1.75.13,2.29,2.29,0,0,0,1.2-.5,2.39,2.39,0,0,0,.79-1.37,12.39,12.39,0,0,0,.18-2.85l-.16-13.52a15.07,15.07,0,0,0-.25-3,4.44,4.44,0,0,0-.82-1.76,4.66,4.66,0,0,0-1.2-1.1,8.19,8.19,0,0,0-1.78-.75v-.4S195.62,11.91,205,14.38Z" transform="translate(0.72 0.71)" stroke="#666766" stroke-miterlimit="10" stroke-width="0.25" fill="url(#g)"/>
  <path d="M234.5,54.08l-11.92-5.81V47.4a4.21,4.21,0,0,0,2.25.2,1.62,1.62,0,0,0,1-1.86,10,10,0,0,0-.69-2.52l-.38-1-2.14-5.65-8.15-3-.75,2.57-.37,1.15a9.12,9.12,0,0,0-.57,3.35,4.8,4.8,0,0,0,.42,1.58,5.31,5.31,0,0,0,.9,1.4A5.63,5.63,0,0,0,216,45v.48l-8.3-3V42a2.83,2.83,0,0,0,1.68.09,2.79,2.79,0,0,0,1.34-1,7.27,7.27,0,0,0,1-1.81c.31-.77.71-2,1.2-3.55l5.24-17.59,1.06.39,9.67,25.21c.73,1.91,1.5,4.08,1.91,4.93a9.38,9.38,0,0,0,1.29,2.06,5.63,5.63,0,0,0,1.06,1,6.24,6.24,0,0,0,1.19.71ZM222.21,35.57l-4.68-12.4-2.87,9.62Z" transform="translate(0.72 0.71)" stroke="#666766" stroke-miterlimit="10" stroke-width="0.25" fill="url(#h)"/>
  <path d="M160.69,37.68l.09-11.77.61.15A32.38,32.38,0,0,0,164,33.72q2.88,5.4,7.25,6.33a5.41,5.41,0,0,0,5-1.13,6.52,6.52,0,0,0,2-5.14,11.79,11.79,0,0,0-.43-3.07,11.26,11.26,0,0,0-1.17-2.85,12.82,12.82,0,0,0-2.16-2.6,52.5,52.5,0,0,0-4.24-3.5,47.8,47.8,0,0,1-3.84-3.13,16.24,16.24,0,0,1-2.16-2.38,11.8,11.8,0,0,1-2.27-7,10.8,10.8,0,0,1,.9-4.38,8.32,8.32,0,0,1,2.47-3.25A7.67,7.67,0,0,1,172,.24a11,11,0,0,1,2.31.76,23.49,23.49,0,0,1,2.82,1.67c.89.57,1.48.94,1.8,1.12a3.26,3.26,0,0,0,.85.33c.62.13,1-.26,1.24-1.19l.61.13.17,11.38-.6-.13c-.48-1.91-.89-3.38-1.23-4.42A20.29,20.29,0,0,0,178.76,7a13.56,13.56,0,0,0-2.85-3.91,7.65,7.65,0,0,0-3.59-1.83,4.68,4.68,0,0,0-4.68,1.18,5.21,5.21,0,0,0-1.12,1.84,6.79,6.79,0,0,0-.41,2.32q0,4.77,5.67,8.9l3.72,2.74a22.93,22.93,0,0,1,6.2,6.18,13.67,13.67,0,0,1,2.16,7.38,11.36,11.36,0,0,1-1,4.8,8.13,8.13,0,0,1-4.13,4.27,10.42,10.42,0,0,1-6.48.43,18.59,18.59,0,0,1-6.56-2.86c-1.09-.74-1.74-1.18-1.95-1.3a2.3,2.3,0,0,0-.72-.26,1.38,1.38,0,0,0-1.72.92v.08Z" transform="translate(0.72 0.71)" stroke="#666766" stroke-miterlimit="10" stroke-width="0.25" fill="url(#i)"/>
  <path d="M64.54,33.73l1.19,2a331.34,331.34,0,0,1,92.87.72V34.27A330.83,330.83,0,0,0,64.54,33.73Z" transform="translate(0.72 0.71)" fill="#847251"/>
  <path d="M42.36,39.06a3.2,3.2,0,0,0,.89.52q6.3-1.34,12.71-2.41l-1.08-1.9c-4.51.77-9,1.65-13.42,2.61A4.51,4.51,0,0,0,42.36,39.06Z" transform="translate(0.72 0.71)" fill="#847251"/>
  <path d="M26.16,43.08a7.64,7.64,0,0,0,1.19-1.79q-8.18,2.22-16.08,4.91A3.1,3.1,0,0,0,12,47a3,3,0,0,0,1.64.55Q19.24,45.68,25,44A6.43,6.43,0,0,0,26.16,43.08Z" transform="translate(0.72 0.71)" fill="#847251"/>
  <path d="M234.5,57.5a236.47,236.47,0,0,0-50.93-18.33A11.28,11.28,0,0,1,182,40.91a238.22,238.22,0,0,1,52.5,18.71Z" transform="translate(0.72 0.71)" fill="#847251"/>
</svg>
