<svg id="Layer_1" data-name="Layer 1" xmlns="http://www.w3.org/2000/svg" viewBox="0 0 612 612">
  <title>Mapping</title>
  <rect width="612" height="612" rx="68.5" ry="68.5" fill="purple"/>
  <g>
    <path d="M175.3,440.5h23.36V372L176.09,377l-1.84-8.19,24.41-5.49V307l-22.6,5.09-1.84-8.19,24.44-5.5V267.27l-24.85-10.8,3.34-7.7,21.51,9.35V181.64H175.3v-8.39h23.36V122.31H109v378.4h89.63V448.9H175.3ZM154.66,165.41a13.23,13.23,0,1,1-13.23,13.23A13.23,13.23,0,0,1,154.66,165.41Zm0,291.81A13.23,13.23,0,1,1,167.89,444,13.24,13.24,0,0,1,154.66,457.22Zm0-66.05a13.23,13.23,0,1,1,13.23-13.23A13.23,13.23,0,0,1,154.66,391.17Zm0-66.6a13.23,13.23,0,1,1,13.23-13.23A13.23,13.23,0,0,1,154.66,324.57Zm0-66.61a13.23,13.23,0,1,1,13.23-13.22A13.23,13.23,0,0,1,154.66,258Z" transform="translate(0 0)" fill="#fff"/>
    <polygon points="76.61 466.55 104.25 498.35 104.25 121.8 76.61 90 76.61 466.55" fill="#fff"/>
    <polygon points="171.96 90 82.33 90 106.17 116.15 195.8 116.15 171.96 90" fill="#fff"/>
    <rect x="198.66" y="440.5" width="195.39" height="8.39" fill="#fff"/>
    <rect x="198.66" y="173.25" width="195.39" height="8.39" fill="#fff"/>
    <polygon points="198.66 258.12 198.66 267.27 245.81 287.76 198.66 298.38 198.66 306.98 258.86 293.42 344.31 330.55 198.66 363.36 198.66 371.96 357.35 336.22 394.04 352.16 394.04 343.01 371.22 333.09 394.04 327.95 394.04 319.35 358.18 327.42 272.73 290.3 394.04 262.97 394.04 254.37 259.69 284.63 198.66 258.12" fill="#fff"/>
    <ellipse cx="467.07" cy="110.94" rx="73.02" ry="18.27" fill="#fff"/>
    <path d="M467.07,134.42c-40.33,0-73-8.18-73-18.27v57.1h52.21v8.39H394v72.73l52-11.71,1.84,8.19L394,263v56.38l51.57-11.62,1.84,8.19L394,328V343l53.78,23.36-3.34,7.7L394,352.16V440.5h52.21v8.4H394v39.7c0,10.09,32.7,18.27,73,18.27s73-8.18,73-18.27V116.15C540.09,126.24,507.4,134.42,467.07,134.42Zm0,321.6a13.23,13.23,0,1,1,13.23-13.23A13.23,13.23,0,0,1,467.07,456Zm0-66a13.23,13.23,0,1,1,13.23-13.23A13.23,13.23,0,0,1,467.07,390Zm0-66.61a13.23,13.23,0,1,1,13.23-13.22A13.22,13.22,0,0,1,467.07,323.37Zm0-66.6a13.23,13.23,0,1,1,13.23-13.23A13.23,13.23,0,0,1,467.07,256.77Zm0-66.1a13.23,13.23,0,1,1,13.23-13.22A13.22,13.22,0,0,1,467.07,190.67Z" transform="translate(0 0)" fill="#fff"/>
  </g>
</svg>
