<svg id="Layer_1" data-name="Layer 1" xmlns="http://www.w3.org/2000/svg" viewBox="0 0 612 612">
  <title>PerformanceRun</title>
  <rect width="612" height="612" rx="68.5" ry="68.5" fill="blacck"/>
  <path d="M302.34,332.4c10.69,7.48,47.36,27.07,54.49,27.07-23.15,6.77-37.39,15.31-49.15,15.31s-44.87,3.56-52.34,0C270.29,366.59,302.34,332.4,302.34,332.4Zm161-158.84c8.69,5.44,7.19,19.44,17.1,8.55,5.93-6.51,9.59-10.86,15.66-8.55,7.93,5.44,9.77-4.16,11.41-8.55,1.25-3.33,3.56-6.41,6.41-6.41s5.69-8.54,7.11-15,.72-34.19-17.8-40.6-35.62-1.42-39.89,10.69-7.12,25.64-10.68,22.79-7.13-1.43-7.13-7.12-12.82-22.71-24.93-29.16c-11.4-19.28-25.64-25-30.62-30S375.7,52.47,370,51.76s-86.94-9.49-106.5-2.51c-17.92,6.4-50.44,6.29-54,7s-7.36,2.83-7,6.75c-6.41,1.42-15.9,8-13.41,9.42s15.67-4.63,19.59-3.21-13.53,10-15,12.11,1.08,5,5.7,3.56,18.17-10.33,26.36-8.54,6.05,2.5,7.12,6S224,90.23,224.35,97s3.92,7.47,6.06,3.2,6.77-10.69,12.47-11.4,6.54-14.17,12.82-18.88c4.27-3.2,30.27-1.06,42,1.43s47.36.36,54.13,5.7,4.7,22.9,15.39,31.45,20.22,18.76,22,21.61c-10.33,8.19-32.77,27.43-38.47,36.33s-40.68,55.4-47.45,57.89-25.5,12.34-32.33,21.5c-7.05,9.46-15.29,23.18-18.86,40.28-9.61,12.46-20.24,22.38-24.57,26.71-14.25,14.25-26.71,51.28-31,55.56s-39.18,23.15-48.08,34.19-6.86,17.38-9.26,18.16c-32.24,10.6-49.14,52-54.13,49.86s-28.49-6.41-32.41-5.34C50.56,475.93,46.77,489,49,495c3.64,9.85-4.49,22.6-6.27,31.5s-3.2,31,6.06,36.69,12.1-21.38,13.53-22.45,18.87-19.58,21.72-26,15.67-18.16,22.44-25.29,72.29-62.33,84.4-68,23.51-11.41,29.2-15.68c2.49,16.74,13.9,62.33,28.85,64.47s8.54-8.55,8.54-15.68-2.13-13.54,1.43-17.1.36-10.32,2.85-15.3S274.21,411.81,273.5,410s-6.05-2.84.71-3.56,75.5-1.07,95.8,0,25.64-2.53,35.62-3.56c10,.71,30.63-16.38,24.57-34.54S383.91,298.21,368.94,289c-1.07-15-2.84-10,.36-12.47s23.86-11,31.7-19.24,15.31-6.76,23.15-12.82S444.09,225.2,448,224.48s34.76,35.9,48.07,43.45c11.24,6.38,30,9.24,34.92,8.57,5.5-.75,6.78-18.31,12-38.25,2-7.7,7.22-38.34,7.93-43s2.83-27.14,3.19-33.2.12-22.33-.83-24c-.76-1.31-3.44-2.72-3.78,2.66s0,13.81-2.47,13.75c-2,0-1-13.5-.66-17.41,2.22-16.06-4.46-15.21-4.71.45-.24,9.67-.92,15.25-1.71,16.34-1.09-.79-2.38-9.61-2.38-13.17s.43-12.93-1.71-14-5.24-.92-4.89,6.2,1.78,14.25,1.78,16.38V154c-2.13,1.07-4.66-13.37-4.72-15.17-.21-6-6.25-14-4.9-.15,1,10.23,1.79,13.54,2.85,16s2.1,12.25,1.39,14.75a55.39,55.39,0,0,1-4.88-10.84c-1.92-6.58-7.37-3.05-4.88,6.21s9.44,17,11.94,20.51,1.78,17.45-.36,24.22S517.81,234.1,516,241.22c-4.78-13.22-17.62-18.62-24-21.47s.52-14.85-21.56-31.59S463.31,173.56,463.31,173.56Z" transform="translate(0 0)" fill="#fff"/>
</svg>
