<svg id="Layer_1" data-name="Layer 1" xmlns="http://www.w3.org/2000/svg" viewBox="0 0 2517.13 445.39">
  <title>postgresql-h</title>
  <g id="Layer_3">
    <path d="M337.7,421.12c2.84-23.6,2-27.06,19.57-23.24l4.46.4c13.52.61,31.2-2.18,41.59-7,22.36-10.38,35.62-27.7,13.57-23.15-50.3,10.37-53.76-6.66-53.76-6.66,53.12-78.8,75.32-178.83,56.15-203.32C367,91.36,276.54,123,275,123.77l-.48.08A179.33,179.33,0,0,0,241,120.36c-22.76-.38-40,6-53.14,15.9,0,0-161.4-66.5-153.9,83.63,1.6,31.94,45.78,241.66,98.47,178.31,19.26-23.16,37.88-42.75,37.88-42.75a48.87,48.87,0,0,0,31.91,8.15l.89-.77a35.3,35.3,0,0,0,.36,9c-13.57,15.17-9.58,17.83-36.72,23.42-27.46,5.66-11.33,15.73-.8,18.37,12.77,3.19,42.31,7.71,62.27-20.23l-.79,3.19c5.32,4.26,5,30.62,5.72,49.45s2,36.41,5.85,46.77,8.37,37.05,44,29.41c29.81-6.39,52.6-15.58,54.68-101.11" transform="translate(-15 -96.9)" fill="#010101" stroke="#010101" stroke-width="37.4"/>
    <path d="M416.89,368.13c-50.3,10.37-53.76-6.66-53.76-6.66,53.12-78.81,75.32-178.84,56.16-203.32C367,91.36,276.54,123,275,123.77l-.49.08A179.35,179.35,0,0,0,241,120.36c-22.76-.38-40,6-53.13,15.9,0,0-161.41-66.5-153.9,83.63,1.6,31.94,45.77,241.66,98.47,178.31,19.26-23.16,37.87-42.75,37.87-42.75a48.88,48.88,0,0,0,31.91,8.15l.9-.77a35.3,35.3,0,0,0,.36,9c-13.58,15.17-9.59,17.83-36.72,23.42-27.46,5.66-11.33,15.73-.8,18.37,12.77,3.19,42.31,7.71,62.27-20.23l-.8,3.19c5.32,4.26,9.05,27.71,8.43,49s-1.05,35.85,3.14,47.25,8.37,37.05,44,29.41c29.81-6.39,45.25-22.94,47.4-50.56,1.53-19.63,5-16.72,5.2-34.28l2.76-8.3c3.2-26.62.51-35.2,18.88-31.21l4.46.39c13.52.62,31.21-2.17,41.59-7,22.36-10.37,35.62-27.7,13.57-23.14Z" transform="translate(-15 -96.9)" fill="#356892"/>
    <path d="M230.37,383.38c-1.39,49.52.34,99.38,5.19,111.5s15.22,35.68,50.9,28c29.8-6.39,40.65-18.76,45.36-46,3.46-20.08,10.14-75.85,11-87.28" transform="translate(-15 -96.9)" fill="none" stroke="#fff" stroke-linecap="round" stroke-linejoin="round" stroke-width="12.47"/>
    <path d="M187.6,135.15s-161.52-66-154,84.11c1.6,31.94,45.78,241.67,98.48,178.32,19.25-23.17,36.67-41.34,36.67-41.34" transform="translate(-15 -96.9)" fill="none" stroke="#fff" stroke-linecap="round" stroke-linejoin="round" stroke-width="12.47"/>
    <path d="M274.85,123.1c-5.59,1.76,89.85-34.89,144.09,34.42C438.1,182,415.89,282,362.78,360.85" transform="translate(-15 -96.9)" fill="none" stroke="#fff" stroke-linecap="round" stroke-linejoin="round" stroke-width="12.47"/>
    <path d="M362.78,360.85s3.46,17,53.77,6.65c22-4.55,8.77,12.78-13.58,23.16-18.35,8.51-59.47,10.69-60.15-1.07-1.73-30.36,21.65-21.13,20-28.74-1.52-6.85-12-13.57-18.89-30.34-6-14.63-82.8-126.85,21.29-110.18,3.81-.79-27.15-99-124.56-100.6s-94.19,119.76-94.19,119.76" transform="translate(-15 -96.9)" fill="none" stroke="#fff" stroke-linecap="round" stroke-linejoin="bevel" stroke-width="12.47"/>
    <path d="M203.1,371.23c-13.57,15.17-9.58,17.83-36.72,23.42-27.46,5.66-11.32,15.73-.8,18.36,12.77,3.2,42.31,7.72,62.27-20.23,6.08-8.51,0-22.08-8.38-25.54-4-1.67-9.43-3.77-16.37,4Z" transform="translate(-15 -96.9)" fill="none" stroke="#fff" stroke-linecap="round" stroke-linejoin="round" stroke-width="12.47"/>
    <path d="M202.21,371c-1.36-8.92,2.93-19.53,7.54-32,6.92-18.62,22.89-37.25,10.12-96.34-9.52-44-73.4-9.16-73.44-3.19s2.89,30.26-1.06,58.55C140.2,335,168.85,366.17,201.84,363" transform="translate(-15 -96.9)" fill="none" stroke="#fff" stroke-linecap="round" stroke-linejoin="round" stroke-width="12.47"/>
    <path d="M187,238.6c-.29,2,3.73,7.48,9,8.2s9.72-3.52,10-5.56-3.73-4.28-9-5-9.72.33-10,2.37Z" transform="translate(-15 -96.9)" fill="#fff" stroke="#fff" stroke-width="4.16"/>
    <path d="M346.44,234.44c.29,2-3.73,7.48-9,8.21s-9.71-3.53-10-5.56,3.74-4.29,9-5,9.72.34,10,2.37Z" transform="translate(-15 -96.9)" fill="#fff" stroke="#fff" stroke-width="2.08"/>
    <path d="M365.18,220.33c.86,16-3.45,26.89-4,43.91C360.38,289,373,317.32,354,345.68" transform="translate(-15 -96.9)" fill="none" stroke="#fff" stroke-linecap="round" stroke-linejoin="round" stroke-width="12.47"/>
    <path d="M14.5,157.13" transform="translate(-15 -96.9)" fill="none" stroke="#fff" stroke-linecap="round" stroke-linejoin="round" stroke-width="3"/>
  </g>
  <g id="g4466">
    <path id="path4254" d="M695.84,288H600.79V180.93H701q55,0,55,54.38,0,52.74-60.18,52.73m68.31-108.36q-19.53-19.6-54.66-19.6l-136.12.84V417.13h27.42l-.25-109.08H701.82q38.1,0,60-19.6t21.89-54.38Q783.69,199.29,764.15,179.68Z" transform="translate(-15 -96.9)" fill="#231f20"/>
    <path id="path4256" d="M941.65,363.35a53.33,53.33,0,0,1-13,21.8q-18.42,20.14-56.24,20.14-34.14,0-52.43-19.59t-18.29-52.42q0-17.1,4.79-30.35a59.93,59.93,0,0,1,13.87-22.35q18.92-19.32,52.06-19.32,73.44,0,73.43,72,0,17.1-4.18,30.07m5-94.51q-25.08-25.62-74.23-25.61-46.46,0-71.77,26.16-22.85,23.69-22.85,63.89,0,39.93,23.59,64.43a77.09,77.09,0,0,0,30.36,19.14q17.32,5.91,40.67,5.92,48.92,0,74.47-25.33,22.86-23.13,22.86-64.16Q969.73,292,946.63,268.84Z" transform="translate(-15 -96.9)" fill="#231f20"/>
    <path id="path4258" d="M1154.1,370.75q0,51.74-82.74,51.73-25.27,0-42.59-3.6T1000.66,407a44.58,44.58,0,0,1-13.26-16.52q-4.92-10.18-6.38-25.59l25.66-.28q0,20.37,13.47,30,14.46,11.58,51.22,11.57,57.83,0,57.82-32.47,0-19-19.39-26.14-3.93-1.38-46.77-7.29t-53.39-10.6Q986.8,319.47,986.8,293q0-25.86,20.4-38.52,10.08-5.24,25.19-8.12a188,188,0,0,1,35-2.89q79.63,0,79.64,56h-24.41q0-39.35-56-39.35-28.47,0-42.48,8t-14,24.5q0,15.4,18.91,22.28,11.06,3.58,50.83,8.26,35.61,3.59,48.87,10.19Q1154.1,344.34,1154.1,370.75Z" transform="translate(-15 -96.9)" fill="#231f20"/>
    <path id="path4260" d="M1254.9,417.48q-5.89,1.09-10.44,1.64a63.88,63.88,0,0,1-6.51.55q-25,0-36.14-8.14T1190.73,383V266.06h-30.44v-17.2h30.19l.25-55.24h23.39v55.24h40.74v17.48l-40.74-.28V379.82q0,12.71,6,17.54t21.49,4.83a16.61,16.61,0,0,0,4.92-.18,77.81,77.81,0,0,0,8.1-2.07Z" transform="translate(-15 -96.9)" fill="#231f20"/>
    <path id="path4262" d="M1416.71,378.69a67.53,67.53,0,0,1-21.85,13.47q-12.27,4.68-28.22,4.68-73.41,0-73.4-67.92,0-31.62,18.78-49.5t52.9-17.87q34.36,0,52.16,18t17.8,48.26q0,33-18.17,50.87M1458.28,249h-23.4l-.25,28.9q-15.47-17.61-22.1-22.28-19.65-12.09-50.84-12.09-45.69,0-69.76,23.38-22.85,21.45-22.84,62.16,0,20.08,5.78,35.89a72.05,72.05,0,0,0,16.85,26.82q24.1,22.55,68.14,22.55,52.88,0,75-32.41v29.92q0,28.62-16.09,44.3t-52.93,15.69q-34.63,0-49.36-10.68-11.05-8.22-15.23-28.5H1277.2q3.93,28.32,21.37,41,20.15,14.57,68.06,14.57,91.65,0,91.65-76.34Z" transform="translate(-15 -96.9)" fill="#231f20"/>
    <path id="path4264" d="M1584.83,266a110.21,110.21,0,0,0-19.63-1.93q-57.69,0-57.68,70.88v82.17h-23.15L1484.12,249l23.4.26v30h1.23q5.88-17.73,18.65-26.88,14-8.87,41.72-8.86h15.71Z" transform="translate(-15 -96.9)" fill="#231f20"/>
    <path id="path4266" d="M1606.59,322.43q4.41-28.67,19.88-44.38a67.42,67.42,0,0,1,22.83-13.65,85.57,85.57,0,0,1,28.73-4.55q31.18,0,50.94,19.16t19.75,43.42H1606.59M1751,270.56a74,74,0,0,0-30.48-20.43q-18.18-6.62-42.51-6.62-45.46,0-70.54,23.68t-25.06,64.44q0,40.75,24.07,64.7,26,26.44,73.46,26.44a122,122,0,0,0,35-4.8,91.81,91.81,0,0,0,28.13-13.57q21.12-17,26.78-41.95h-25.29q-13,43.13-64.82,43.12-36.59,0-56.23-21.09-17-18.08-16.94-46.83h166.79Q1773.38,294.86,1751,270.56Z" transform="translate(-15 -96.9)" fill="#231f20"/>
    <path id="path4268" d="M2020.55,348.45q0,74.88-107.8,74.88-64.59,0-94.3-25.8-24.32-21.19-24.31-64.68h28.93q0,69.91,89.67,69.9,43,0,62.17-14.3,16.21-12.63,16.21-39.59,0-26.67-22.11-37.4-12.54-5.77-61.19-14.58-61.17-10.44-79.35-20.89-26.28-15.4-26.28-52.26,0-34.36,22.36-51.15,24.06-18.42,82.55-18.42,105.66,0,105.66,78.63h-29.18q0-58.9-78.46-58.9-39.34,0-57.54,11.84-17.22,12.66-17.22,37.16,0,25.61,22.12,36.07,11.79,6.06,69.29,16.8,54.06,9.09,73,21.2Q2020.57,311.83,2020.55,348.45Z" transform="translate(-15 -96.9)" fill="#3780b0"/>
    <path id="path4270" d="M2255.57,373.92a109.72,109.72,0,0,1-36.64,21.84Q2198.5,403,2173.19,403q-51.64,0-83.5-31.18t-31.83-83.11q0-54.13,31.59-84.36t83.74-30.22q52.86,0,83.12,31.6a95.48,95.48,0,0,1,23.61,36q7.6,20.61,7.62,47,0,53.85-32,85.17m15.37,17a109,109,0,0,0,33.45-43.29q10.82-25.44,10.83-58.72,0-59.67-35.39-95.69a117.06,117.06,0,0,0-45.71-29.43q-26.77-9.61-61.19-9.62-66.84,0-104.92,36.29t-38.08,98.44q0,60.5,38.43,97.61t105,37.11q26,0,45.44-3.94t32.92-12.12l42.74,33.19,17.85-18.38Z" transform="translate(-15 -96.9)" fill="#3780b0"/>
    <path id="path4272" d="M2531.89,417.13H2334.2V160.63l27.17-.55V395.71h170.77Z" transform="translate(-15 -96.9)" fill="#3780b0"/>
  </g>
</svg>
