<svg id="Layer_1" data-name="Layer 1" xmlns="http://www.w3.org/2000/svg" viewBox="0 0 612 612">
  <title>GearProperties</title>
  <rect width="612" height="612" rx="68.5" ry="68.5" fill="#FDCE66"/>
  <path d="M524.5,346.51V266.4l-49.16-8.2a153.08,153.08,0,0,0-15.48-37.32L489,180.82l-56.44-57.36-41,28.22a190.15,190.15,0,0,0-37.33-15.47L346.06,88H265.94l-8.19,49.16c-13.66,3.64-25.49,9.1-37.33,15.47l-40.06-28.22L123,180.82l29.13,40.06a177.55,177.55,0,0,0-15.48,38.23L87.5,266.4v80.11l49.16,8.2c3.64,13.65,9.11,25.49,15.48,37.32L123,433l56.44,56.45,41-29.13a177.1,177.1,0,0,0,38.24,15.47L266.85,524H347l8.19-49.16a190.15,190.15,0,0,0,37.33-15.47l41,29.13,56.44-56.45-29.13-41c6.37-11.83,11.84-23.67,15.48-37.32ZM306,390.21a83.53,83.53,0,0,1-83.76-83.75c0-46.44,38.24-83.76,83.76-83.76s83.76,37.32,83.76,83.76A83.53,83.53,0,0,1,306,390.21Z" transform="translate(0 0)" fill="#fff"/>
</svg>
