<svg id="Layer_1" data-name="Layer 1" xmlns="http://www.w3.org/2000/svg" viewBox="0 0 612 612">
  <title>ResilienceLeaf</title>
  <path d="M545.5,0H70.5A68.5,68.5,0,0,0,2,68.5v475A68.5,68.5,0,0,0,70.5,612h475A68.5,68.5,0,0,0,614,543.5V68.5A68.5,68.5,0,0,0,545.5,0Zm-299,431C165,431,160.7,413.72,99,556.31c-23.2,0-42-4.14-42-9.26,189.5-342,261.73-302.47,384.57-401.85C364,201.1,247.51,196.5,118.5,428.6,60,132.1,465,119.89,509.47,55.69,509.47,263.14,391.85,431,246.5,431Z" transform="translate(-2)" fill="black"/>
</svg>
