<svg id="Layer_1" data-name="Layer 1" xmlns="http://www.w3.org/2000/svg" viewBox="0 0 612 612">
  <title>Sharding</title>
  <rect width="612" height="612" rx="68.5" ry="68.5" fill="black"/>
  <g>
    <path d="M380.74,59.11c0-6.06,19.66-11,43.91-11s43.91,4.92,43.91,11-19.66,11-43.91,11-43.91-4.92-43.91-11Z" transform="translate(0.14)" fill="#fff" fill-rule="evenodd"/>
    <path d="M380.74,62.25c0,6.07,19.66,11,43.91,11s43.91-4.92,43.91-11v87.19c0,6.06-19.66,11-43.91,11s-43.91-4.92-43.91-11Z" transform="translate(0.14)" fill="#fff" fill-rule="evenodd"/>
    <path d="M380.74,59.11c0,6.07,19.66,11,43.91,11s43.91-4.92,43.91-11v3.18c0,6.07-19.66,11-43.91,11s-43.91-4.92-43.91-11Z" transform="translate(0.14)" fill="#310E1A" fill-rule="evenodd"/>
  </g>
  <g>
    <path d="M262.08,62c0-7.34,23.76-13.28,53.07-13.28S368.23,54.63,368.23,62s-23.76,13.28-53.08,13.28-53.07-6-53.07-13.28Z" transform="translate(0.14)" fill="#fff" fill-rule="evenodd"/>
    <path d="M262.08,65.76c0,7.33,23.76,13.28,53.07,13.28s53.08-6,53.08-13.28V171.14c0,7.33-23.76,13.28-53.08,13.28s-53.07-5.95-53.07-13.28Z" transform="translate(0.14)" fill="#fff" fill-rule="evenodd"/>
    <path d="M262.08,62c0,7.33,23.76,13.28,53.07,13.28s53.08-6,53.08-13.28V65.8c0,7.34-23.76,13.28-53.08,13.28s-53.07-5.94-53.07-13.28Z" transform="translate(0.14)" fill="#310E1A" fill-rule="evenodd"/>
  </g>
  <g>
    <path d="M145,109.67C145,101,173.05,94,207.66,94s62.66,7,62.66,15.68-28,15.68-62.66,15.68-62.66-7-62.66-15.68Z" transform="translate(0.14)" fill="#fff" fill-rule="evenodd"/>
    <path d="M145,114.14c0,8.66,28.05,15.68,62.66,15.68s62.66-7,62.66-15.68V238.55c0,8.66-28,15.68-62.66,15.68s-62.66-7-62.66-15.68Z" transform="translate(0.14)" fill="#fff" fill-rule="evenodd"/>
    <path d="M145,109.67c0,8.66,28.05,15.68,62.66,15.68s62.66-7,62.66-15.68v4.53c0,8.66-28,15.68-62.66,15.68S145,122.86,145,114.2Z" transform="translate(0.14)" fill="#310E1A" fill-rule="evenodd"/>
  </g>
  <g>
    <path d="M48.78,217c0-10.59,34.31-19.17,76.63-19.17S202,206.42,202,217s-34.31,19.17-76.63,19.17S48.78,227.6,48.78,217Z" transform="translate(0.14)" fill="#fff" fill-rule="evenodd"/>
    <path d="M48.78,222.49c0,10.58,34.31,19.17,76.63,19.17S202,233.07,202,222.49V374.63c0,10.59-34.31,19.18-76.63,19.18s-76.63-8.59-76.63-19.18Z" transform="translate(0.14)" fill="#fff" fill-rule="evenodd"/>
    <path d="M48.78,217c0,10.59,34.31,19.17,76.63,19.17S202,227.6,202,217v5.54c0,10.59-34.31,19.17-76.63,19.17s-76.63-8.58-76.63-19.17Z" transform="translate(0.14)" fill="#310E1A" fill-rule="evenodd"/>
  </g>
  <g>
    <path d="M57.4,315.31c0-12.29,39.82-22.25,88.93-22.25s88.92,10,88.92,22.25-39.81,22.24-88.92,22.24-88.93-10-88.93-22.24Z" transform="translate(0.14)" fill="#fff" fill-rule="evenodd"/>
    <path d="M57.4,321.66c0,12.29,39.82,22.25,88.93,22.25s88.92-10,88.92-22.25V498.21c0,12.29-39.81,22.25-88.92,22.25s-88.93-10-88.93-22.25Z" transform="translate(0.14)" fill="#fff" fill-rule="evenodd"/>
    <path d="M57.4,315.31c0,12.28,39.82,22.24,88.93,22.24s88.92-10,88.92-22.24v6.43c0,12.28-39.81,22.24-88.92,22.24S57.4,334,57.4,321.74Z" transform="translate(0.14)" fill="#310E1A" fill-rule="evenodd"/>
  </g>
  <path d="M474.11,430.92a75.85,75.85,0,0,1,23.42-3.7c.55,0,1.09,0,1.63,0L455.21,183l12.46-2.24-29.39-20.44L417.85,189.7l12.46-2.24Z" transform="translate(0.14)" fill="#fff"/>
  <g>
    <path d="M449.8,444.1a75.78,75.78,0,0,1,22.07-12.43L353,201.69l11.24-5.82L330.08,185l-10.85,34.14,11.24-5.82Z" transform="translate(0.14)" fill="#fff"/>
    <path d="M449.71,444.17l-196-181.32,8.59-9.3L226.51,255l1.41,35.79,8.58-9.3L433,463.17A76.05,76.05,0,0,1,449.71,444.17Z" transform="translate(0.14)" fill="#fff"/>
  </g>
  <path d="M422.38,514.41c-.14-1-.27-2-.38-3,0-.37-.07-.75-.11-1.12-.07-.83-.14-1.66-.19-2.49l-.06-1.08c-.05-1.16-.09-2.33-.09-3.51s0-2.32.09-3.47c0-.28,0-.57,0-.86.07-1.11.15-2.22.26-3.32,0-.19,0-.37.06-.55.1-.93.22-1.85.35-2.76,0-.37.11-.73.16-1.09.16-1,.33-2,.53-3,.08-.4.18-.8.26-1.2.14-.63.28-1.26.44-1.89s.24-1,.37-1.48c.19-.71.39-1.41.6-2.12s.44-1.43.68-2.14c.11-.34.23-.69.35-1q1.08-3.12,2.41-6.1l.17-.36c1-2.12,2-4.2,3.16-6.21L211.58,386.2l4.3-11.91-32.4,15.22,15.21,32.42L203,410l218.91,79.1H262.42V476.27L236.74,502l25.68,25.71V514.83h160Z" transform="translate(0.14)" fill="#fff"/>
  <circle cx="497.67" cy="503.2" r="66.11" fill="#fff" stroke="#231f20" stroke-miterlimit="8" stroke-width="0.25"/>
</svg>
