<svg id="Layer_1" data-name="Layer 1" xmlns="http://www.w3.org/2000/svg" xmlns:xlink="http://www.w3.org/1999/xlink" viewBox="0 0 662.13 152.67">
  <defs>
    <linearGradient id="linear-gradient" x1="-18719.38" y1="-8826.59" x2="-18561.93" y2="-8919.62" gradientTransform="translate(1337.38 757.33) scale(0.07)" gradientUnits="userSpaceOnUse">
      <stop offset="0" stop-color="#909ca9"/>
      <stop offset="1" stop-color="#eeeded"/>
    </linearGradient>
    <linearGradient id="linear-gradient-2" x1="-18715.84" y1="-10580.04" x2="-18589.15" y2="-10580.04" gradientTransform="translate(1337.38 757.33) scale(0.07)" gradientUnits="userSpaceOnUse">
      <stop offset="0" stop-color="#949fab"/>
      <stop offset="1" stop-color="#dcdee1"/>
    </linearGradient>
    <radialGradient id="radial-gradient" cx="6296.16" cy="-6382.75" r="168.2" gradientTransform="matrix(-0.07, -0.01, 0.02, -0.13, 623.41, -741.76)" gradientUnits="userSpaceOnUse">
      <stop offset="0" stop-color="#ef392d"/>
      <stop offset="1" stop-color="#a91f24"/>
    </radialGradient>
  </defs>
  <title>sql-server-h</title>
  <g>
    <path d="M88.06,71.27l-30.57,10L30.89,93l-7.44,2c-1.89,1.8-3.88,3.63-6,5.47-2.36,2-4.55,3.89-6.24,5.23a46.39,46.39,0,0,0-6,6,27.41,27.41,0,0,0-4.49,7.58,12.75,12.75,0,0,0,1.8,11.44c3.15,4.63,9.41,9.34,16.71,12.55a105.39,105.39,0,0,0,14.7,4.92,193.78,193.78,0,0,0,31.34,4.46,35.51,35.51,0,0,0,4,0,54.16,54.16,0,0,0,3-5.66,143.15,143.15,0,0,0,10.84-28.68A135.5,135.5,0,0,0,85.82,98.4c.16-2.24.23-9.75.09-12.29a84.35,84.35,0,0,0-1.15-10.84,2.5,2.5,0,0,1-.07-1,40.18,40.18,0,0,1,4.14-1.25l-.77-1.8Zm-7,4.09c.27,0,1,7.09,1.2,11.58a6.07,6.07,0,0,1,0,1.57c-.18,0-3.9-2.2-6.56-3.86-2.31-1.46-6.7-4.37-7.39-4.92-.24-.16-.21-.19,1.68-.83C73.2,77.81,80.83,75.36,81.09,75.36ZM65.51,80.49a7.57,7.57,0,0,1,2,1.09,143.07,143.07,0,0,0,14,7.78c.86.37,1,.24-1,1.58a101,101,0,0,1-15.88,8.52c-1.13.51-2.08.9-2.1.9a5.55,5.55,0,0,1,.28-1.27,68.64,68.64,0,0,0,2.47-16.24c0-2.31,0-2.31.23-2.38-.05,0,0,0,0,0ZM62.3,81.72a50.35,50.35,0,0,1-.14,6.72,58.46,58.46,0,0,1-2.13,10,13.59,13.59,0,0,1-.53,1.62,40.53,40.53,0,0,1-4.3-4.18A31.22,31.22,0,0,1,51,89.73a19.38,19.38,0,0,1-1.29-3.14c.37-.25,12.55-5,12.64-4.87ZM47.18,87.65s0,0,.07,0a3.76,3.76,0,0,1,.35.83,30.88,30.88,0,0,0,3.84,6.86,39.24,39.24,0,0,0,5.33,5.76c.56.46,1.07.9,1.14,1s.18.11-3.59,1.55C50,105.31,45.2,107,39.74,108.73L35.84,110c-.21.07-.14,0,.46-1a130.34,130.34,0,0,0,9.13-18.4c.39-1,.78-2,.85-2.26a.84.84,0,0,1,.51-.6,2,2,0,0,1,.39-.1Zm-4.62,1.92a52.27,52.27,0,0,1-2.26,4.79c-2.24,4.36-4.69,8.66-8,13.88-.55.91-1.08,1.74-1.15,1.83s-.16.12-.53-.6a20.85,20.85,0,0,1-1.78-5.36A21.59,21.59,0,0,1,29,97.22c.3-1.43.28-1.41,1-1.75,3-1.51,12.53-6,12.62-5.9Zm39.87,1.62v1a125.62,125.62,0,0,1-1.37,17.38c-.14.9-.25,1.64-.28,1.66l-1.45-.41a59.3,59.3,0,0,1-10.63-4.56,47.73,47.73,0,0,1-5.41-3.32s1-.53,2.13-1.14a134.74,134.74,0,0,0,12.64-7.41c1.41-1,3.53-2.48,4-2.89l.37-.28ZM25.11,98c.1,0,.07.19-.06,1-.1.6-.21,1.71-.26,2.47a17.18,17.18,0,0,0,2,9.29,15.06,15.06,0,0,1,.81,1.76c-.16.13-15.46,4.62-20.26,5.94l-2.78.76c-.16,0-.18,0-.11-.37.53-3.4,3.12-7.84,6.72-11.58a29.74,29.74,0,0,1,7.61-5.82c2.35-1.34,6-3.35,6.26-3.45,0,0,0,0,0,0Zm36.06,6.45a9.11,9.11,0,0,1,1.24.67A69.74,69.74,0,0,0,80.11,112l.54.12-.74.42c-3.08,1.71-13.18,5.91-23.51,9.77-1.5.56-3,1.11-3.25,1.23a2,2,0,0,1-.54.16s.42-.83,1-1.83a113.92,113.92,0,0,0,7.28-16.57c.19-.44.3-.83.33-.85Zm-3.68,1.2a7,7,0,0,1-.39,1.06,147.37,147.37,0,0,1-8,16.16c-.86,1.52-1.57,2.75-1.6,2.75s-.71-.42-1.54-.93a47.45,47.45,0,0,1-12.09-10.28l-.42-.51,2.11-.58a150,150,0,0,0,20.29-7Zm22.83,8h0a88.91,88.91,0,0,1-2.12,8.74c-.81,2.89-1.51,5.15-2.78,9.15-.55,1.76-1,3.21-1.06,3.21a1.34,1.34,0,0,1-.3-.07,96.9,96.9,0,0,1-18.79-5.29c-1.62-.65-3.93-1.69-4.07-1.8a26.8,26.8,0,0,1,3.1-1.46c10.52-4.6,21.42-9.82,25.17-12.06a3,3,0,0,1,.85-.42Zm-52.71,1.8c.05,0-2.89,4.28-7,10l-3.72,5.25c-.63.88-1.57,2.26-2.1,3.1l-1,1.5-1-.88a38.57,38.57,0,0,1-4.29-4.39,18.89,18.89,0,0,1-3.86-7.46c-.26-1.11-.26-1.67,0-1.74s6.52-1.55,12.3-2.89c3.21-.74,6.93-1.61,8.27-1.94l2.45-.58Zm3,1.14.74.83a43.25,43.25,0,0,0,10.84,8.87,6.06,6.06,0,0,1,1.24.81c-.16.12-14.28,5.13-20.82,7.4-3.67,1.29-6.7,2.33-6.72,2.33a4.54,4.54,0,0,1-.46-.3l-.42-.3.67-1c2.17-3.14,4.9-6.59,10.84-13.75l4.09-4.92ZM49,129.78s1,.35,2.29.81a74.22,74.22,0,0,0,8.57,2.66,95.79,95.79,0,0,0,13,2.24c.5,0,.78.09.69.16s-3.56,1.23-6.06,2c-4,1.25-16.1,4.83-26,7.68-1.83.53-3.4,1-3.49,1s-1-.16-1-.26a18,18,0,0,1,1.23-1.54,138.21,138.21,0,0,0,9.38-12.62c.76-1.16,1.41-2.1,1.41-2.13Zm-4.07.12s-1.62,2.66-4.48,7.18c-1.23,1.92-2.59,4.1-3.07,4.86s-1.16,1.89-1.55,2.54l-.67,1.18-.35-.09c-.83-.24-6.68-2.29-8.23-2.92a56.43,56.43,0,0,1-5.38-2.47,22.26,22.26,0,0,1-4-2.52l7-1.92C34.38,133,40,131.4,43.67,130.24a9,9,0,0,1,1.27-.34Zm28.77,6.75h0c.09.23-3.65,10.63-5,13.91-.3.74-.41.92-.58.9-.39,0-5.82-.79-9.12-1.27-5.76-.88-15.42-2.57-17.84-3.12l-.56-.12,3.44-.78c7.4-1.67,11-2.57,14.56-3.68a102.24,102.24,0,0,0,13.61-5.24,10.09,10.09,0,0,1,1.48-.6Z" transform="translate(0)" fill="url(#linear-gradient)"/>
    <path d="M56.54,0c-.51-.07-8.71,2.89-14,5C35.4,8,29.85,10.72,26.43,13.13a12.21,12.21,0,0,0-3.12,3.12,2.21,2.21,0,0,0-.14.78L26.27,20l7.37,2.35,17.54,3.15,20.06,3.44.21-1.73c-.07,0-.12,0-.19,0l-2.63-.41-.53-.95C65.37,21,62.37,15,60.61,11a75.71,75.71,0,0,1-3.37-9.31C56.84.12,56.8,0,56.54,0Zm-.37,1.18h0s.11.67.2,1.43a48.17,48.17,0,0,0,2.25,9.73c.85,2.54.85,2.41-.14,2.1C56.15,13.8,45.59,12,37.94,10.91c-1.22-.16-2.26-.32-2.26-.35s5.52-3,8-4.18C46.84,4.92,55.53,1.3,56.17,1.18ZM33.9,11.53l.9.3c4.9,1.67,17.21,4,24,4.58l1.43.14a10.75,10.75,0,0,1-1.46.76C55.5,19,51.9,21,49.4,22.51a9.84,9.84,0,0,1-1.5.83c-.09,0-.58-.09-1.09-.16L45.89,23l-2.31-2.26c-4.07-4-7.26-7-8.48-8.16Zm-.93.72,3.26,4.07c1.78,2.24,3.58,4.43,4,4.92a7.88,7.88,0,0,1,.69.9c-.09.07-4.72-.83-7.17-1.39s-3.55-.85-5.1-1.34L27.36,19v-.33c0-1.54,2-3.86,5.31-6.21l.3-.21ZM60.66,17.8c.09,0,.2.2.48.83.79,1.73,3.24,6.4,3.84,7.3.18.3.51.32-2.75-.21C54.39,24.45,51.88,24,51.88,24a2.37,2.37,0,0,1,.53-.35,46.16,46.16,0,0,0,7.05-4.87l1.1-.93s.07-.07.1,0Z" transform="translate(0)" fill="url(#linear-gradient-2)"/>
    <path d="M23.47,15.92a2.33,2.33,0,0,0,0,2,9.24,9.24,0,0,0,2.17,2.57S35.91,30.53,37.15,32c5.69,6.56,8.16,13,8.39,22a35.44,35.44,0,0,1-3.65,16.61C37.09,81,26.94,92.6,11.3,105.45l2.28-.76a73.29,73.29,0,0,1,8.21-4.88A292.69,292.69,0,0,1,59.94,82.73C81.57,74.6,117.14,65.08,137.38,62l2.1-.32-.32-.51a69.37,69.37,0,0,0-4.65-6.54A55.54,55.54,0,0,0,118.11,41c-9.06-5.06-20.78-9-35.62-12-2.79-.55-8.94-1.61-13.93-2.38C58,25,51.14,23.85,43.6,22.56c-2.7-.47-6.75-1.16-9.43-1.74a59.13,59.13,0,0,1-6.12-1.64c-1.66-.65-4.07-1.29-4.58-3.26Zm6,5.78a7.66,7.66,0,0,1,.87.28c.88.3,2,.65,3.36,1l3,.8c1.38.35,2.54.67,2.56.67.16.17,2.5,7.63,3.28,10.5.3,1.08.53,2,.51,2a4.88,4.88,0,0,1-.58-.91A48.07,48.07,0,0,0,30.57,22.6a9.57,9.57,0,0,1-1.13-.9Zm11.37,3.14a9,9,0,0,1,1.24.21c3.93.88,11,2.22,15.49,3a6.31,6.31,0,0,1,1.36.3,2.37,2.37,0,0,1-.62.4c-.77.39-3.84,2.21-4.86,2.91a45.13,45.13,0,0,0-6.54,5.22l-1.24,1.23s-.14-.4-.26-.88a73.59,73.59,0,0,0-4.14-11.33,10.22,10.22,0,0,1-.46-1.06c0,.05,0,0,0,0Zm20,3.82a8.68,8.68,0,0,1,.83,2.56,37.64,37.64,0,0,1,1.11,10.59,19.39,19.39,0,0,1-.14,2l-.07.23-1.2-.39c-2.47-.78-6.49-2-9.94-2.93a36.82,36.82,0,0,1-3.56-1.07,56.14,56.14,0,0,1,4.09-4.09,108.86,108.86,0,0,1,8.88-6.88Zm1.59.23c.07-.07,9.57,1.57,13.89,2.4,3.21.62,7.88,1.6,8.16,1.71s-.35.32-1.9,1a100.36,100.36,0,0,0-15.13,8.22c-1.18.79-2.17,1.44-2.2,1.44a14.53,14.53,0,0,1,0-1.48,32.22,32.22,0,0,0-2.5-12.57A4.06,4.06,0,0,1,62.41,28.89ZM87,33.74a17.12,17.12,0,0,1-.51,3,58,58,0,0,1-5.82,13.36,18.14,18.14,0,0,1-1,1.57A9.63,9.63,0,0,1,78.29,51a75.77,75.77,0,0,0-9.06-4.44c-.92-.39-1.73-.71-1.76-.76s7.28-5.06,11.21-7.42c3.12-1.89,8.21-4.71,8.3-4.62Zm1.75.28c.21,0,4.42,1.15,6.61,1.8a138.75,138.75,0,0,1,15.74,5.75l1.69.77-1.18.27a173.52,173.52,0,0,0-26.65,8.25c-.67.28-1.27.51-1.31.51a5.57,5.57,0,0,1,.48-1.18A46.51,46.51,0,0,0,88.57,34.8c0-.44.09-.78.16-.78ZM46.86,43.63a50.88,50.88,0,0,1,5,1.18c2.63.74,8.22,2.61,8.22,2.75s-.62.55-1.36,1.2c-3,2.52-5.94,5.18-9.43,8.55-1,1-1.92,1.8-2,1.8s-.07-.13-.05-.32A52.1,52.1,0,0,0,47,44.86C46.91,44.21,46.84,43.65,46.86,43.63Zm67.5.07a42.38,42.38,0,0,1-2.45,3.81c-1.38,2-3.42,4.63-8,10.4-2.42,3.05-5.15,6.5-6,7.65s-1.69,2.13-1.71,2.13a9.53,9.53,0,0,1-.65-.93,47.71,47.71,0,0,0-9.36-10.33c-.69-.57-1.45-1.2-1.71-1.38a2.5,2.5,0,0,1-.46-.4c0-.06,3.93-1.75,6.91-2.95,5.22-2.13,12.34-4.67,17.68-6.31,2.79-.88,5.78-1.74,5.82-1.69Zm1.78.46a5.67,5.67,0,0,1,1.32.65,78.69,78.69,0,0,1,15.46,11.6c1.22,1.2,4.25,4.35,4.2,4.37l-2.31.18a227.59,227.59,0,0,0-34.15,5.69L99.09,67s.85-.9,2-2c7-6.77,10.24-11.05,14-18.67.53-1.14,1-2.11,1-2.18ZM64.68,49.43C65,49.5,68,50.91,70.27,52c2.08,1,5.2,2.71,5.36,2.85s-1.09.6-2.45,1.27c-4.34,2.17-8.06,4.23-12,6.58-1.1.67-2,1.23-2,1.23s-.07-.1.55-1.23A48,48,0,0,0,64.42,50c.1-.35.19-.58.26-.58Zm-3,.56a42.57,42.57,0,0,1-1.2,4.46,57,57,0,0,1-4.09,9.38L55.16,66l-.58.93-1.3-1.25A16.82,16.82,0,0,0,49,62.47a6.8,6.8,0,0,1-1.11-.65c0-.19,3.95-3.77,7-6.36C57,53.59,61.6,49.92,61.67,50Zm18.38,7.55,1.13.74a86.38,86.38,0,0,1,8,5.9c1.32,1.08,3.86,3.37,4.37,3.92l.27.3-1.87.54c-10.58,2.93-18.76,5.54-28.31,9-1.06.4-2,.72-2,.72s-.25.12,2.13-2.08A101.33,101.33,0,0,0,79.24,58.79l.81-1.25Zm-4.83,1.2s-3.12,4.51-5,7c-2.26,3-6.29,8-9.06,11.32C60,78.46,59,79.59,59,79.61s-.1-.32-.1-.85a19.32,19.32,0,0,0-2-8.32c-.53-1.07-.62-1.32-.51-1.43.44-.4,7.17-4.23,11.42-6.52,2.86-1.53,7.35-3.79,7.42-3.75ZM46,65.91a11.78,11.78,0,0,1,1.2.6,25.49,25.49,0,0,1,4,2.68,6.51,6.51,0,0,1-1.34,1.11c-2.19,1.57-5.52,4.09-7.46,5.64s-2.11,1.66-1.87,1.32a44.17,44.17,0,0,0,3.09-5.34,42.34,42.34,0,0,0,1.94-4.83A3.87,3.87,0,0,1,46,65.91ZM53.79,72c.12,0,.26.18.88,1.11a16.56,16.56,0,0,1,2.59,6.72l.05.47-3.17,1.22c-5.66,2.2-10.88,4.37-14.42,6-1,.46-2.73,1.29-3.86,1.84s-2.06,1-2.06,1,.72-.56,1.6-1.2a93.62,93.62,0,0,0,17.38-16c.48-.58.92-1.11,1-1.13Zm-3.58.88a50.06,50.06,0,0,1-4.34,4.9A76.68,76.68,0,0,1,31.52,89.36l-1.39.88c-.16.1.05-.14,2.45-2.75,1.52-1.64,2.68-3,4-4.73a7.62,7.62,0,0,1,2.31-2.2C42.29,78.11,50.12,72.8,50.21,72.89Z" transform="translate(0)" fill="url(#radial-gradient)"/>
  </g>
  <path d="M266.25,45.57c-.74,0-1.48.07-2.22.07C249,46.44,238.89,53.05,233,66c-5.06,11.67-4.51,26.92.06,38.66,5.31,11.47,13.89,17.52,28.22,19.81,3,.5,5.06,2.16,10.93,9l7.22,8.46h13.1l-8.71-8.78c-4.81-4.81-8.71-9-8.71-9.37s1.84-1.18,4.07-1.86c7.35-2.22,13.46-7.9,17.72-16.6,3.46-7,4-9.15,4.45-17.84,1.3-25.88-12.35-42.06-35.07-41.88Zm11.49,67.68c-6.38,3.08-15.63,3.7-21.67,1.48-6.24-2.29-12.29-8.78-15-16.12-3-8-2.59-22.84.86-29.51,5.56-10.62,12.91-15.51,23.65-15.51,15.93,0,25,9.76,26.18,28.1.93,15.31-4.19,26.79-14,31.55ZM504,67.68c-5.49,0-9.7,2.22-12.53,6.6l-2.22,3.47v-9h-9.51v54.1h9.5V105.54c0-15.81.2-17.66,2.41-22,3-5.93,8.28-8.89,13.35-7.48l3.39,1V67.69H504Zm-55.86-.5a27.6,27.6,0,0,0-5.81.68c-12.72,3.33-19.89,15.51-19.45,28,0,10.49,2,15.74,7.1,21.24,10.37,8.51,19.75,9.19,32.41,4.63,2.16-.93,4.51-2,4.51-2v-8.51l-4.51,2.34c-10.24,4.46-18,4.46-24.14-.79-3.95-4-5.68-8.83-6.48-14.33h38.34V91.2c0-14.87-8.95-24.26-22-24ZM432.64,90.9s1.42-9.27,6.67-12.91a14.3,14.3,0,0,1,8.27-2.65,13.23,13.23,0,0,1,8,2.71c4.82,3.7,5.62,12.78,5.62,12.78H432.64v.07ZM203.4,81.14c-10.31-6.24-14.88-10.74-14.33-16,1.6-14.7,19.76-12.66,29.81-7.11L219,48.1a38.79,38.79,0,0,0-13.53-2.54c-12.22-.18-20.12,3.83-23.82,12-5.44,12-.63,21.12,16.78,31.24,9.77,5.69,14.09,10.62,14.09,16,0,11.11-13.41,15-27.23,8-2.85-1.42-5.26-2.6-5.39-2.6a86.54,86.54,0,0,0-.24,10.69,58.81,58.81,0,0,0,10.62,3c15.81,3.15,30.19-4.27,31.55-16.3,1.18-11.3-2.91-17.23-18.39-26.48ZM588.17,67.05a28.89,28.89,0,0,0-5.87.69c-12.71,3.33-19.87,15.51-19.38,28,0,10.48,2,15.68,7.09,21.17,10.37,8.52,19.76,9.2,32.48,4.63,2.15-.92,4.5-2,4.5-2v-8.52l-4.51,2.35c-10.26,4.45-18,4.45-24.14-.81-4-4-5.69-8.76-6.49-14.32h38.28V91c0-14.79-9-24.19-22-23.94l0,0Zm-15.5,23.72s1.43-9.26,6.67-13a14.28,14.28,0,0,1,8.27-2.65,13.24,13.24,0,0,1,8,2.72c4.81,3.7,5.62,12.84,5.62,12.84H572.67v.06Zm-174.3-9.51C388.06,75,383.5,70.52,384.06,65.21c1.6-14.7,19.75-12.66,29.81-7.11l.07-9.88a38.53,38.53,0,0,0-13.53-2.52c-12.22-.19-20.12,3.82-23.83,12-5.43,12-.55,21.11,16.8,31.24,9.75,5.68,14.07,10.55,14.07,15.93,0,11.12-13.39,15.06-27.22,8-2.84-1.41-5.24-2.58-5.38-2.58a84.53,84.53,0,0,0-.24,10.69,64.12,64.12,0,0,0,10.55,3c15.81,3.16,30.2-4.24,31.55-16.28,1.18-11.24-2.9-17.17-18.34-26.43v0ZM644.05,67.55c-5.5,0-9.75,2.23-12.54,6.61l-2.22,3.46v-9h-9.51v54.08h9.5V105.4c0-15.8.19-17.66,2.41-22,3-5.92,8.28-8.89,13.35-7.47l3.39,1v-9.4ZM322.75,81V46.5h-9.58v76.31h40.31v-9H322.75V81ZM544.46,91.69l-7.9,20.57L529,91.58l-7.72-22.91h-9.81c6.36,18,13.27,36.36,20.25,54.14,3,.07,6.05,0,9.07,0L551.43,96l10.86-27.34h-9.38s-4.14,10.86-8.46,23Zm-199.61-66a5.25,5.25,0,0,0,3.89-1.55,5.16,5.16,0,0,0,1.6-3.83,5.06,5.06,0,0,0-1.6-3.82A5.33,5.33,0,0,0,344.92,15a5.26,5.26,0,0,0-3.9,1.55,5.13,5.13,0,0,0-1.54,3.82A5,5,0,0,0,341,24.2a5.21,5.21,0,0,0,3.83,1.49Zm-3.4-8.78a4.85,4.85,0,0,1,8.28,3.4,4.76,4.76,0,0,1-1.41,3.46,4.65,4.65,0,0,1-3.4,1.36,4.53,4.53,0,0,1-3.4-1.36,4.77,4.77,0,0,1-1.42-3.46A4.57,4.57,0,0,1,341.45,16.92Zm2.28,3.9h.63c.44,0,.87.42,1.24,1.23l.74,1.67h1.17l-.92-1.85c-.38-.75-.75-1.18-1.18-1.3a2.24,2.24,0,0,0,1.29-.68,1.71,1.71,0,0,0,.43-1.24,1.56,1.56,0,0,0-.56-1.3,3,3,0,0,0-2-.55h-2v6.92h1v-2.9Zm0-3.22h.87a2.24,2.24,0,0,1,1.3.31,1,1,0,0,1,.3.87c0,.8-.5,1.17-1.42,1.17h-1.06V17.6ZM185.37,20.2c0-2.41-.07-4.2-.13-5.25h.06a16.08,16.08,0,0,0,.8,2.79l9.21,20.56h1.54l9.2-20.75a17.63,17.63,0,0,0,.8-2.59h.07c-.18,2.05-.24,3.83-.24,5.26V38.36h3.15v-27h-4l-8.46,18.76c-.32.74-.75,1.86-1.3,3.33H196a20.69,20.69,0,0,0-1.23-3.2l-8.27-19h-4.2v27h3V20.22l.05,0Zm31.36.05h2.72v16.8h-2.72Zm1.36-6.16a1.94,1.94,0,0,0,1.42-.56,2,2,0,0,0,.62-1.42,1.77,1.77,0,0,0-.62-1.42,2,2,0,0,0-1.43-.56,2,2,0,0,0-1.41.56,2,2,0,0,0-.63,1.42,1.72,1.72,0,0,0,.63,1.42,2,2,0,0,0,1.41.56Zm20.75,23.33v-3a7.86,7.86,0,0,1-4.75,1.67,6.11,6.11,0,0,1-4.76-2,7.64,7.64,0,0,1-1.79-5.31,8,8,0,0,1,1.91-5.6,6.21,6.21,0,0,1,4.81-2,7.93,7.93,0,0,1,4.58,1.48V19.52a10.55,10.55,0,0,0-11.74,1.92,10.82,10.82,0,0,0-2.71,7.64A9.8,9.8,0,0,0,226.86,36a8.75,8.75,0,0,0,6.67,2.77,10.85,10.85,0,0,0,5.31-1.36Zm7.78-9A8.7,8.7,0,0,1,248,23.23a3.88,3.88,0,0,1,3.15-1.68,3.63,3.63,0,0,1,2.34.63V19a5,5,0,0,0-1.84-.24,4.67,4.67,0,0,0-3,1.06A6.51,6.51,0,0,0,246.62,23h-.07V19.09h-3.08V38.35h3.08V28.47Zm17.72,10.26a9.08,9.08,0,0,0,7-2.79,10.39,10.39,0,0,0,2.6-7.4,10.52,10.52,0,0,0-2.41-7.35,8.53,8.53,0,0,0-6.73-2.66,9.62,9.62,0,0,0-7,2.54A10.48,10.48,0,0,0,255,28.84a10,10,0,0,0,2.46,7.1,9,9,0,0,0,6.91,2.78ZM260,23a6.09,6.09,0,0,1,4.63-1.85A5.77,5.77,0,0,1,269.16,23a8.38,8.38,0,0,1,1.66,5.62,8.31,8.31,0,0,1-1.54,5.43,5.64,5.64,0,0,1-4.64,2,6,6,0,0,1-4.69-2,7.77,7.77,0,0,1-1.73-5.43A7.58,7.58,0,0,1,260,23Zm27.47,14a5,5,0,0,0,1.8-3.95,4.83,4.83,0,0,0-1.41-3.52,11.17,11.17,0,0,0-3.59-2.09,11.29,11.29,0,0,1-2.91-1.61,2.65,2.65,0,0,1-.8-2,2.32,2.32,0,0,1,.92-1.91,3.8,3.8,0,0,1,2.48-.74,7.25,7.25,0,0,1,4.39,1.37V19.53a9.09,9.09,0,0,0-4.14-.92,7.4,7.4,0,0,0-4.89,1.6,5,5,0,0,0-1.91,4,4.93,4.93,0,0,0,1.23,3.45,9.87,9.87,0,0,0,3.46,2.16,13.26,13.26,0,0,1,3.15,1.79,2.36,2.36,0,0,1,.8,1.84c0,1.8-1.23,2.73-3.64,2.73a7.65,7.65,0,0,1-5-1.84v3.33a9.2,9.2,0,0,0,4.75,1.17,8.39,8.39,0,0,0,5.31-1.79Zm14.7-18.52a9.66,9.66,0,0,0-7,2.54,10.56,10.56,0,0,0-2.83,7.77,10.08,10.08,0,0,0,2.46,7.1,10,10,0,0,0,13.89,0,10.37,10.37,0,0,0,2.6-7.41,10.57,10.57,0,0,0-2.41-7.35,8.7,8.7,0,0,0-6.72-2.66Zm6,10.13a8.23,8.23,0,0,1-1.54,5.43,5.62,5.62,0,0,1-4.63,2,6,6,0,0,1-4.7-2,7.77,7.77,0,0,1-1.72-5.43A7.91,7.91,0,0,1,297.37,23,6.1,6.1,0,0,1,302,21.12,5.87,5.87,0,0,1,306.56,23a9.4,9.4,0,0,1,1.54,5.68Zm8.34,9.63h3.08V21.62H324V19h-4.51v-3c0-2.7,1.05-4.06,3.22-4.06a4.14,4.14,0,0,1,2,.5V9.7a6.88,6.88,0,0,0-6.36,1.24,6.51,6.51,0,0,0-2,5V19.1h-3.26v2.59h3.26V38.3ZM329.11,33c0,3.77,1.66,5.68,5.06,5.68a5.55,5.55,0,0,0,2.9-.63V35.44a3.18,3.18,0,0,1-2,.62,2.66,2.66,0,0,1-2.22-.8,4.55,4.55,0,0,1-.68-2.78V21.61h4.88V19h-4.88V13.34c-1.07.37-2.11.68-3.09,1V19h-3.33v2.59h3.33V33Zm331.36,35.5a5.3,5.3,0,0,0-3.82-1.49,5.3,5.3,0,0,0-5.44,5.39,5,5,0,0,0,1.54,3.82,5.41,5.41,0,0,0,3.89,1.49,5.32,5.32,0,0,0,3.9-1.55,5.22,5.22,0,0,0,1.59-3.82,5.36,5.36,0,0,0-1.67-3.84ZM660,75.83a5,5,0,0,1-6.8,0,4.79,4.79,0,0,1-1.42-3.47A4.57,4.57,0,0,1,653.12,69a4.84,4.84,0,0,1,8.27,3.39A4.44,4.44,0,0,1,660,75.83Zm-2.78-3.15a2.61,2.61,0,0,0,1.3-.68,1.7,1.7,0,0,0,.42-1.24,1.61,1.61,0,0,0-.55-1.3,3.12,3.12,0,0,0-2-.54h-2v6.91h1V72.92H656c.42,0,.85.43,1.23,1.24l.73,1.66h1.18L658.25,74c-.32-.8-.69-1.17-1.06-1.29Zm-.68-.62h-1.06V69.72h.87a2.18,2.18,0,0,1,1.3.31c.24.18.3.42.3.86,0,.8-.5,1.17-1.42,1.17ZM76,151.46h.51v-4.15h1.37v-.52H74.63v.52H76v4.15Zm3.14-3.12a7.45,7.45,0,0,0,0-.92,2.64,2.64,0,0,0,.14.48l1.59,3.56h.26l1.59-3.59c0-.11.08-.26.15-.45,0,.37,0,.67,0,.89v3.14h.55v-4.66h-.67L81.25,150a6.18,6.18,0,0,0-.22.59h0a3.41,3.41,0,0,0-.22-.55l-1.44-3.26h-.75v4.67h.53v-3.11Z" transform="translate(0)" fill="#23201f"/>
</svg>
