<svg id="Layer_1" data-name="Layer 1" xmlns="http://www.w3.org/2000/svg" viewBox="0 0 612 612">
  <title>Tooling</title>
  <path d="M543.5,0H68.5A68.5,68.5,0,0,0,0,68.5v475A68.5,68.5,0,0,0,68.5,612h475A68.5,68.5,0,0,0,612,543.5V68.5A68.5,68.5,0,0,0,543.5,0ZM193.92,481.34a64.78,64.78,0,0,1-95.3,39.46l47-27.14-6.18-31.73L113.1,437.31,66,464.48a65,65,0,0,1,81.87-62.83c2.07.58,4.11,1.25,6.11,2l89.61-89.61h0l46,46L195.3,454.41A64.92,64.92,0,0,1,193.92,481.34Zm321.6,24.23-18.11,18.11a19.68,19.68,0,0,1-27.9,0L178.09,232.26a22.47,22.47,0,0,1-15.13.63c-10.83-6.6-24.77-5.54-35.4.92-24.22,15-40.71,39.79-43.71,67.6-.85,7.9,1.9,22.63,1.42,28-.12,1.37-2.08,1.46-3,1.67-5.63-18.23-9.42-37.17-9.67-56.3a122.16,122.16,0,0,1,9.94-51.4c10.09-24.51,31.25-41.11,49.36-59.43,20.93-19.44,39.42-43.15,66.9-53.66,7.78-4.87,27.24-10.21,22.57-20.56-5.13-13.61,8-28,21.32-27.75h0a17.27,17.27,0,0,1,9,2.75c11.92,10.53,22.65,22.42,34.08,33.49,12.37,9.9,5.5,30.73-8.71,34.85-9.31,3.91-18.46-1.68-24.18-8.81-10.2,8.88-24.66,16.58-26.63,31.31.95,10.3,4.12,21.77-1.69,31.11l291,291A19.7,19.7,0,0,1,515.52,505.57Zm16.92-329.75A78.59,78.59,0,0,1,423,226.71L351.91,297.8l-46-46,74.86-74.86A78.55,78.55,0,0,1,453.39,76.77c1,0,2-.06,2.95-.06h0a77.3,77.3,0,0,1,39.32,10.6l-56.88,32.84,4.88,45.78,34.48,22.4,57-32.88A78.63,78.63,0,0,1,532.44,175.82Z" fill="black"/>
</svg>
